Wislandic.sfdir
StartChar: exclam
Encoding: 33 33 26
Width: 1000
Flags: H
LayerCount: 2
Fore
SplineSet
443.87890625 308.36328125 m 4
 481.461914062 388.541015625 609.474609375 354.0625 566.87890625 238.61328125 c 4
 556.528320312 208.163085938 532.228515625 187.913085938 532.228515625 187.913085938 c 5
 547.221679688 173.623046875 571.157226562 97.4501953125 504.178710938 27.86328125 c 5
 516.328125 15.86328125 539.428710938 17.513671875 556.678710938 19.763671875 c 4
 581.046875 23.8486328125 605.40625 31.611328125 626.728515625 44.212890625 c 5
 595.84765625 16.9775390625 581.08203125 -4.9853515625 532.978515625 -3.486328125 c 4
 507.62890625 -1.537109375 488.428710938 14.6630859375 488.428710938 14.6630859375 c 5
 488.428710938 14.6630859375 474.178710938 3.712890625 452.278320312 4.1630859375 c 4
 407.8671875 5.076171875 396.296875 51.9912109375 427.528320312 79.462890625 c 4
 453.068359375 101.9296875 490.69921875 43.1552734375 489.028320312 40.3134765625 c 5
 526.392578125 72.4365234375 544.9140625 154.625976562 516.24609375 176.7265625 c 5
 507.760742188 169.725585938 484.109375 155.514648438 474.987304688 154.983398438 c 4
 465.865234375 154.454101562 454.622070312 165.166992188 475.092773438 180.65234375 c 4
 495.5625 196.138671875 514.078125 196.313476562 514.078125 196.313476562 c 6
 550.186523438 215.84765625 588.2734375 319.11328125 521.658203125 335.481445312 c 4
 471.297851562 347.85546875 426.907226562 229.642578125 475.37890625 244.61328125 c 4
 499.065429688 252.109375 515.259765625 278.18359375 515.278320312 278.212890625 c 5
 514.828125 275.212890625 495.928710938 244.313476562 488.12890625 236.212890625 c 4
 480.328125 228.11328125 469.228515625 223.763671875 458.578125 230.063476562 c 4
 438.521484375 241.928710938 430.525390625 279.875 443.87890625 308.36328125 c 4
473.500976562 27.7041015625 m 5
 477.565429688 37.6845703125 434.096679688 103.77734375 426.408203125 43.189453125 c 4
 425.75 17.767578125 457.37109375 24.03515625 473.500976562 27.7041015625 c 5
EndSplineSet
EndChar
StartChar: quotedbl
Encoding: 34 34 32
Width: 1000
Flags: H
LayerCount: 2
Fore
SplineSet
377.234375 797.416015625 m 5
 449.22265625 780.770507812 534.130859375 536.771484375 376.779296875 445.705078125 c 4
 359.935546875 435.952148438 321.790039062 429.583007812 336.311523438 434.286132812 c 4
 381.93359375 453.833984375 425.83203125 622.583007812 407.161132812 710.493164062 c 4
 395.966796875 763.203125 377.234375 797.416015625 377.234375 797.416015625 c 5
467.234375 797.416015625 m 1
 539.22265625 780.770507812 624.130859375 536.771484375 466.779296875 445.705078125 c 0
 449.935546875 435.952148438 411.790039062 429.583007812 426.311523438 434.286132812 c 0
 471.93359375 453.833984375 515.83203125 622.583007812 497.161132812 710.493164062 c 0
 485.966796875 763.203125 467.234375 797.416015625 467.234375 797.416015625 c 1
EndSplineSet
EndChar
StartChar: quotesingle
Encoding: 39 39 27
Width: 1000
Flags: H
LayerCount: 2
Fore
SplineSet
467.234375 798.416015625 m 5
 539.22265625 781.770507812 624.130859375 537.771484375 466.779296875 446.705078125 c 4
 449.935546875 436.952148438 411.790039062 430.583007812 426.311523438 435.286132812 c 4
 471.93359375 454.833984375 515.83203125 623.583007812 497.161132812 711.493164062 c 4
 485.966796875 764.203125 467.234375 798.416015625 467.234375 798.416015625 c 5
EndSplineSet
EndChar
StartChar: parenleft
Encoding: 40 40 52
Width: 1000
Flags: H
LayerCount: 2
Fore
SplineSet
482.028320312 798.795898438 m 1
 372.604492188 755.987304688 352.283203125 666.251953125 349.100585938 622.59765625 c 0
 338.595703125 478.529296875 408.013671875 436.271484375 438.860351562 237.48828125 c 0
 453.240234375 144.81640625 390.350585938 56.978515625 335.900390625 79.087890625 c 0
 249.57421875 114.142578125 238.59765625 235.622070312 245.810546875 297.877929688 c 0
 251.474609375 346.771484375 286.048828125 403.796875 322.419921875 433.376953125 c 0
 322.926757812 434.13671875 330.33984375 436.796875 326.271484375 433.376953125 c 0
 237.05078125 358.39453125 273.977539062 70.3525390625 358.822265625 124.895507812 c 0
 485.916015625 206.598632812 172.41015625 630.01953125 381.223632812 760.52734375 c 0
 440.959960938 797.86328125 482.028320312 798.795898438 482.028320312 798.795898438 c 1
EndSplineSet
EndChar
StartChar: parenright
Encoding: 41 41 53
Width: 1000
Flags: H
LayerCount: 2
Fore
SplineSet
623.151367188 -143.431640625 m 5
 714.336914062 -107.756835938 731.272460938 -32.9775390625 733.924804688 3.400390625 c 4
 742.678710938 123.45703125 684.829101562 158.672851562 659.125 324.325195312 c 4
 647.141601562 401.551757812 699.549804688 474.75 744.924804688 456.325195312 c 4
 816.86328125 427.114257812 826.009765625 325.879882812 820 274 c 4
 815.279296875 233.256835938 786.467773438 185.735351562 756.158203125 161.083984375 c 4
 755.736328125 160.452148438 749.55859375 158.234375 752.94921875 161.083984375 c 4
 827.299804688 223.569335938 796.526367188 463.60546875 725.823242188 418.15234375 c 4
 619.911132812 350.067382812 881.166992188 -2.7841796875 707.155273438 -111.541015625 c 4
 657.375 -142.653320312 623.151367188 -143.431640625 623.151367188 -143.431640625 c 5
EndSplineSet
EndChar
StartChar: comma
Encoding: 44 44 30
Width: 1000
Flags: H
LayerCount: 2
Fore
SplineSet
492.831054688 209.974609375 m 1
 492.831054688 209.974609375 511.106445312 175.176757812 492.650390625 143.993164062 c 0
 474.194335938 112.809570312 453.830078125 107.293945312 442.586914062 108.779296875 c 0
 404.477539062 113.811523438 405.151367188 168.986328125 414.185546875 202.044921875 c 0
 444.837890625 314.212890625 606.498046875 303.607421875 562.44140625 142.932617188 c 0
 555.229492188 116.627929688 532.744140625 79.5048828125 532.744140625 79.5048828125 c 1
 561.729492188 35.2265625 505.311523438 -71.48046875 448.739257812 -80.6552734375 c 0
 444.305664062 -81.373046875 440.6171875 -81.0771484375 438.743164062 -80.8369140625 c 0
 437.271484375 -80.6220703125 519.650390625 -25.265625 520.86328125 62.322265625 c 1
 520.86328125 62.322265625 505.802734375 42.8056640625 487.983398438 30.078125 c 0
 473.4296875 20.6650390625 458.54296875 18.578125 441.73828125 18.41015625 c 1
 472.404296875 27.1728515625 555.250976562 123.303710938 545.471679688 202.329101562 c 0
 524.548828125 332.62109375 403.3125 171.672851562 438.737304688 140.6875 c 0
 460.529296875 121.626953125 490.702148438 171.62109375 492.831054688 209.974609375 c 1
EndSplineSet
EndChar
StartChar: period
Encoding: 46 46 28
Width: 1000
Flags: H
LayerCount: 2
Fore
SplineSet
491.762695312 114.770507812 m 5
 491.762695312 114.770507812 479.762695312 107.270507812 474.0625 105.470703125 c 4
 420.578125 88.58203125 429.578125 199.998046875 509.762695312 232.071289062 c 4
 546.162109375 246.631835938 582.662109375 217.186523438 567.962890625 157.37109375 c 4
 548.815429688 79.4619140625 500.194335938 4.1533203125 474.362304688 -13.9287109375 c 4
 454.953125 -27.515625 437.294921875 -36.7470703125 416.912109375 -45.7294921875 c 5
 488.934570312 10.7666015625 586.168945312 217.245117188 530.462890625 210.170898438 c 4
 478.780273438 203.608398438 426.15625 119.419921875 491.762695312 114.770507812 c 5
EndSplineSet
EndChar
StartChar: slash
Encoding: 47 47 29
Width: 1000
Flags: H
LayerCount: 2
Fore
SplineSet
590.96875 641.440429688 m 5
 590.96875 641.440429688 599.971679688 627.518554688 614.951171875 607.068359375 c 4
 714.692382812 470.897460938 561.431640625 170.935546875 421.305664062 60.837890625 c 4
 388.392578125 34.978515625 351.75390625 14.8642578125 311.251953125 3.4609375 c 5
 374.079101562 43.099609375 416.576171875 113.708984375 416.576171875 113.708984375 c 5
 416.576171875 113.708984375 657.52734375 448.8828125 590.96875 641.440429688 c 5
EndSplineSet
EndChar
StartChar: zero
Encoding: 48 48 33
Width: 1000
Flags: H
LayerCount: 2
Fore
SplineSet
562.130859375 573.823242188 m 5
 562.130859375 573.82421875 l 5
 553.669921875 567.955078125 307.256835938 395.076171875 341.674804688 193.151367188 c 4
 387.133789062 -73.5361328125 631.448242188 94.2919921875 554.833007812 201.069335938 c 4
 550.859375 206.607421875 485.145507812 295.141601562 385.891601562 236.290039062 c 5
 385.891601562 236.290039062 389.4921875 293.130859375 428.615234375 301.825195312 c 4
 495.950195312 316.7890625 613.408203125 262.364257812 616.778320312 172.036132812 c 4
 619.883789062 88.8212890625 560.267578125 44.7314453125 560.267578125 44.7314453125 c 5
 560.267578125 44.7314453125 464.633789062 -36.619140625 379.555664062 31.6904296875 c 4
 180.668945312 191.380859375 389.99609375 557.534179688 562.130859375 573.823242188 c 5
EndSplineSet
EndChar
StartChar: one
Encoding: 49 49 34
Width: 1000
Flags: H
LayerCount: 2
Fore
SplineSet
312.516601562 550.125976562 m 5
 423.552734375 512.166992188 561.06640625 529.083984375 667.837890625 571.45703125 c 4
 679.064453125 575.947265625 709.9375 545.07421875 680.748046875 524.305664062 c 5
 537.51171875 456.368164062 431.98828125 311.63671875 418.607421875 149.8984375 c 4
 416.361328125 74.6806640625 429.272460938 47.1748046875 434.885742188 36.509765625 c 4
 451.086914062 5.728515625 482.005859375 15.26953125 503.232421875 23.091796875 c 5
 422.618164062 -29.9365234375 329.624023438 23.248046875 392.786132812 257.672851562 c 4
 421.974609375 366.010742188 538.169921875 488.379882812 538.169921875 488.379882812 c 5
 465.115234375 490.186523438 365.561523438 490.909179688 312.516601562 550.125976562 c 5
EndSplineSet
EndChar
StartChar: two
Encoding: 50 50 35
Width: 1000
Flags: H
LayerCount: 2
Fore
SplineSet
753.209960938 571.854492188 m 0
 765.75390625 572.065429688 791.166015625 543.740234375 763.801757812 524.26953125 c 1
 620.564453125 456.33203125 515.043945312 311.600585938 501.662109375 149.862304688 c 0
 499.416992188 74.64453125 512.326171875 47.138671875 517.939453125 36.4736328125 c 0
 534.139648438 5.6923828125 565.05859375 15.232421875 586.286132812 23.0556640625 c 1
 505.670898438 -29.9736328125 412.6796875 23.2119140625 475.840820312 257.63671875 c 0
 505.030273438 365.973632812 621.223632812 488.34375 621.223632812 488.34375 c 1
 592.987304688 489.04296875 563.297851562 486.189453125 533.844726562 485.15625 c 1
 425.478515625 408.666015625 349.745117188 285.219726562 338.546875 149.862304688 c 0
 332.341796875 74.8671875 349.2109375 47.138671875 354.82421875 36.4736328125 c 0
 371.024414062 5.6923828125 401.9453125 15.232421875 423.172851562 23.0556640625 c 1
 342.557617188 -29.9736328125 249.563476562 23.2119140625 312.725585938 257.63671875 c 0
 341.915039062 365.973632812 458.110351562 488.34375 458.110351562 488.34375 c 1
 385.0546875 490.150390625 285.499023438 490.873046875 232.454101562 550.08984375 c 1
 354.331054688 512.337890625 656.98046875 534.151367188 750.891601562 571.420898438 c 0
 751.59375 571.69921875 752.373046875 571.83984375 753.209960938 571.854492188 c 0
EndSplineSet
EndChar
StartChar: three
Encoding: 51 51 36
Width: 1000
Flags: H
LayerCount: 2
Fore
SplineSet
256.408203125 58.52734375 m 5
 350.182617188 68.41796875 468.74609375 443.893554688 411.05859375 570.793945312 c 5
 478.063476562 533.907226562 491.275390625 543.61328125 540.116210938 476.376953125 c 5
 540.116210938 476.376953125 559.720703125 518.194335938 599.200195312 542.043945312 c 4
 668.6640625 584.004882812 782.416992188 509.248046875 698.642578125 244.099609375 c 4
 661.282226562 125.848632812 593.885742188 -2.9423828125 511.795898438 3.9970703125 c 5
 569.439453125 38.6708984375 679.303710938 309.678710938 675.250976562 405.958984375 c 4
 670.092773438 528.501953125 613.845703125 491.508789062 553.958984375 448.926757812 c 5
 580.14453125 386.9765625 570.88671875 267.68359375 524.694335938 227.6171875 c 5
 524.694335938 227.6171875 507.3671875 219.762695312 487.73046875 216.990234375 c 5
 540.725585938 316.124023438 536.868164062 437.3203125 453.459960938 510.837890625 c 5
 495.51171875 412.840820312 448.440429688 133.624023438 305.599609375 57.5927734375 c 5
 305.599609375 57.5927734375 265.743164062 43.2919921875 256.408203125 58.52734375 c 5
EndSplineSet
EndChar
StartChar: four
Encoding: 52 52 37
Width: 1000
Flags: H
LayerCount: 2
Fore
SplineSet
632.114257812 526.322265625 m 5
 318.469726562 543.373046875 l 5
 318.469726562 543.373046875 332.725585938 555.314453125 423.37890625 562.703125 c 4
 494.893554688 568.448242188 736.571289062 585.166015625 744.282226562 550.145507812 c 4
 749.068359375 528.408203125 727.331054688 516.243164062 698.615234375 505.076171875 c 4
 659.787109375 489.975585938 469.125 309.203125 410.0546875 247.1640625 c 4
 300.485351562 127.686523438 317.98828125 9.2646484375 416.834960938 68.6826171875 c 4
 452.331054688 90.021484375 472.47265625 127.313476562 472.47265625 127.313476562 c 5
 473.0703125 155.032226562 481.047851562 163.408203125 481.047851562 163.408203125 c 5
 506.174804688 185.543945312 525.318359375 159.619140625 525.318359375 159.619140625 c 5
 537.0859375 137.682617188 524.122070312 117.741210938 524.122070312 117.741210938 c 5
 532.817382812 50.7939453125 588.0859375 29.5537109375 639.03125 117.65234375 c 4
 647.0546875 131.526367188 680.537109375 167.188476562 691.279296875 143.177734375 c 4
 694.669921875 135.600585938 700.025390625 113.374023438 674.642578125 81.2236328125 c 4
 649.260742188 49.0732421875 603.873046875 -0.1513671875 559.876953125 4.361328125 c 4
 515.881835938 8.873046875 491.063476562 66.44921875 491.063476562 66.44921875 c 5
 455.811523438 28.3779296875 388.689453125 -8.568359375 341.02734375 7.2255859375 c 4
 293.366210938 23.0185546875 274.188476562 87.3193359375 297.314453125 158.388671875 c 5
 360.765625 316.161132812 519.2265625 407.73828125 632.114257812 526.322265625 c 5
EndSplineSet
EndChar
StartChar: five
Encoding: 53 53 38
Width: 1000
Flags: H
LayerCount: 2
Fore
SplineSet
367.53515625 549.259765625 m 5
 414.571289062 563.109375 422.301757812 570.7890625 471.37890625 572.534179688 c 4
 544.926757812 573.494140625 679.762695312 573.685546875 679.762695312 573.685546875 c 5
 730.904296875 564.084960938 684.40625 505.596679688 669.96875 488.967773438 c 6
 592.31640625 395.546875 l 5
 647.123046875 396.5546875 704.677734375 344.509765625 696.208007812 273.029296875 c 4
 685.856445312 185.685546875 598.795898438 70.5986328125 468.470703125 17.9091796875 c 4
 376.666992188 -19.20703125 379.563476562 32.57421875 376.848632812 40.4501953125 c 4
 367.973632812 64.251953125 416.541015625 46.435546875 449.422851562 62.609375 c 5
 449.422851562 62.609375 522.0078125 91.923828125 598.048828125 173.939453125 c 4
 674.090820312 255.955078125 653.06640625 326.50390625 622.649414062 342.526367188 c 4
 570.892578125 369.791015625 486.120117188 289.29296875 478.77734375 287.041992188 c 4
 445.9765625 282.788085938 438.98046875 323.688476562 455.692382812 336.46875 c 6
 631.177734375 528.71875 l 5
 529.083007812 537.895507812 466.391601562 517.34375 367.53515625 549.259765625 c 5
 367.53515625 549.259765625 l 5
EndSplineSet
EndChar
StartChar: six
Encoding: 54 54 39
Width: 1000
Flags: HW
LayerCount: 2
Fore
SplineSet
363.046875 557.091796875 m 5
 363.046875 557.091796875 381.430664062 568.581054688 413.810546875 569.208007812 c 4
 446.19140625 569.834960938 636.0859375 569 636.0859375 569 c 5
 689.88671875 559.41015625 605.349609375 461.381835938 574.459960938 397.936523438 c 5
 612.235351562 392.8515625 627.530273438 360.62890625 627.66015625 327.682617188 c 4
 628.0546875 227.885742188 495.958984375 229.369140625 472.095703125 97.3212890625 c 5
 468.7578125 50.2783203125 580.783203125 41.5185546875 590.712890625 47.91796875 c 5
 552.606445312 11.5078125 470.581054688 -17.7900390625 445.732421875 24.7294921875 c 4
 416.4140625 74.8984375 442.805664062 144.728515625 481.953125 204.196289062 c 4
 512.702148438 250.90625 555.23828125 300.3046875 578.53515625 332.59765625 c 5
 539.522460938 355.60546875 504.205078125 336.263671875 482.958984375 306.017578125 c 5
 457.888671875 286.619140625 430.989257812 311.084960938 443.6484375 340.62109375 c 5
 505.4296875 417.372070312 506.970703125 346.587890625 599.708007812 524.005859375 c 5
 599.708007812 524.005859375 506.147460938 524.711914062 460.396484375 522.623046875 c 4
 414.646484375 520.533203125 365.971679688 548.318359375 363.046875 557.091796875 c 5
 363.046875 557.091796875 l 5
EndSplineSet
EndChar
StartChar: seven
Encoding: 55 55 40
Width: 1000
Flags: H
LayerCount: 2
Fore
SplineSet
629.16015625 572.129882812 m 5
 629.16015625 572.129882812 627.854492188 557.088867188 621.848632812 544.8671875 c 4
 615.842773438 532.647460938 609.053710938 516.0390625 575.62890625 478.436523438 c 6
 507.47265625 397.275390625 l 5
 587.881835938 380.674804688 609.40625 285.51953125 606.704101562 228.235351562 c 4
 602.813476562 145.7578125 495.63671875 -26.8974609375 373.548828125 8.396484375 c 5
 401.756835938 13.513671875 408.497070312 39.654296875 439.840820312 63.408203125 c 4
 627.557617188 205.677734375 536.86328125 391.662109375 444.801757812 329.27734375 c 5
 444.801757812 329.27734375 428.611328125 319.876953125 414.249023438 338.678710938 c 4
 399.88671875 357.48046875 415.815429688 376.594726562 419.733398438 380.35546875 c 4
 476.369140625 434.73046875 428.305664062 388.75390625 584.24609375 556.149414062 c 4
 596.58203125 566.561523438 613.106445312 572.129882812 629.16015625 572.129882812 c 5
EndSplineSet
EndChar
StartChar: eight
Encoding: 56 56 41
Width: 1000
Flags: H
LayerCount: 2
Fore
SplineSet
627.676757812 572.129882812 m 5
 627.676757812 572.129882812 626.372070312 557.088867188 620.366210938 544.868164062 c 4
 614.360351562 532.646484375 607.5703125 516.040039062 574.145507812 478.436523438 c 6
 505.989257812 397.27734375 l 5
 546.346679688 388.9453125 571.872070312 360.822265625 586.944335938 327.6328125 c 5
 586.951171875 327.637695312 l 5
 586.951171875 327.637695312 610.768554688 347.580078125 626.279296875 346.694335938 c 4
 641.790039062 345.80859375 646.038085938 340.489257812 645.484375 324.979492188 c 4
 644.9296875 309.46875 629.418945312 291.962890625 627.387695312 289.083007812 c 4
 625.357421875 286.202148438 605.044921875 271.356445312 605.044921875 271.356445312 c 5
 603.1328125 270.192382812 l 5
 605.239257812 255.204101562 605.811523438 240.80859375 605.21875 228.236328125 c 4
 601.328125 145.758789062 494.153320312 -26.8984375 372.064453125 8.3955078125 c 5
 400.272460938 13.5126953125 407.012695312 39.6552734375 438.35546875 63.41015625 c 4
 513.963867188 120.711914062 544.404296875 185.10546875 547.782226562 237.505859375 c 5
 537.653320312 232.892578125 519.581054688 225.446289062 505.520507812 223.940429688 c 4
 484.83984375 221.724609375 470.068359375 223.940429688 470.068359375 223.940429688 c 5
 470.068359375 223.940429688 481.090820312 236.655273438 482.396484375 241.04296875 c 4
 483.674804688 245.33984375 508.25390625 270.23046875 539.689453125 294.217773438 c 5
 522.85546875 336.703125 483.21484375 356.314453125 443.317382812 329.278320312 c 5
 443.317382812 329.278320312 427.12890625 319.876953125 412.766601562 338.678710938 c 4
 398.403320312 357.48046875 414.331054688 376.594726562 418.248046875 380.35546875 c 4
 474.883789062 434.73046875 426.821289062 388.752929688 582.762695312 556.1484375 c 4
 595.099609375 566.561523438 611.622070312 572.129882812 627.676757812 572.129882812 c 5
EndSplineSet
EndChar
StartChar: nine
Encoding: 57 57 42
Width: 1000
Flags: H
LayerCount: 2
Fore
SplineSet
567.115234375 575.548828125 m 5
 567.116210938 575.548828125 l 5
 567.116210938 544.212890625 554.583007812 524.625976562 554.583007812 524.625976562 c 5
 508.885742188 440.328125 l 5
 567.283203125 432.545898438 596.096679688 397.4140625 617.547851562 344.365234375 c 5
 667.28125 357.974609375 683.338867188 309.588867188 628.383789062 281.673828125 c 5
 630.645507812 144.278320312 516.157226562 -13.37109375 434.46484375 5.705078125 c 4
 340.8828125 27.55859375 347.842773438 208.53515625 565.254882812 329.201171875 c 5
 557.958007812 419.463867188 488.055664062 399.893554688 461.880859375 359.798828125 c 4
 449.911132812 341.138671875 422.224609375 276.81640625 393.724609375 302.141601562 c 4
 360.703125 335.1640625 529.745117188 556.685546875 567.115234375 575.548828125 c 5
574.756835938 265.072265625 m 6
 574.756835938 265.072265625 485.126953125 246.282226562 445.434570312 183.922851562 c 4
 405.743164062 121.565429688 431.456054688 54.677734375 454.697265625 60.318359375 c 4
 477.9375 65.958984375 517.1875 100.947265625 551.395507812 157.978515625 c 4
 585.603515625 215.009765625 574.756835938 265.072265625 574.756835938 265.072265625 c 6
EndSplineSet
EndChar
StartChar: question
Encoding: 63 63 31
Width: 1000
Flags: H
LayerCount: 2
Fore
SplineSet
451.28515625 301.19140625 m 1
 451.28515625 301.19140625 445.982421875 299.705078125 442.80078125 322.403320312 c 0
 439.618164062 345.1015625 460.619140625 395.165039062 484.801757812 412.984375 c 0
 540.240234375 453.833007812 568.122070312 393.782226562 555.23046875 352.526367188 c 0
 552.048828125 342.34375 542.71484375 303.524414062 511.955078125 262.583007812 c 0
 481.196289062 221.640625 448.969726562 172.579101562 438.345703125 132.12109375 c 0
 399.85546875 -14.4521484375 491.70703125 -6.8759765625 517.89453125 57.875 c 0
 518.159179688 58.529296875 537.51953125 112.052734375 507.076171875 98.81640625 c 0
 502.197265625 96.6953125 489.469726562 90.3310546875 480.135742188 70.1787109375 c 0
 470.801757812 50.02734375 476.317382812 51.935546875 476.317382812 51.935546875 c 1
 476.317382812 51.935546875 482.044921875 53.4208984375 483.529296875 55.9658203125 c 0
 485.013671875 58.51171875 483.814453125 53.865234375 482.841796875 52.5908203125 c 0
 478.869140625 48.7294921875 472.596679688 45.2841796875 467.204101562 54.0537109375 c 0
 458.276367188 68.572265625 483.780273438 107.6328125 513.334960938 107.08984375 c 0
 535.009765625 106.69140625 531.721679688 69.134765625 516.78125 42.4365234375 c 0
 505.978515625 23.134765625 489.974609375 9.8408203125 477.271484375 6.5400390625 c 0
 439.76171875 -3.208984375 424.108398438 18.8125 413.73828125 51.8291015625 c 0
 390.840820312 137.633789062 471.442382812 249.38671875 487.772460938 270.856445312 c 0
 566.135742188 373.881835938 524.16796875 445.8046875 479.923828125 375.012695312 c 0
 478.673828125 373.014648438 444.038085938 314.778320312 451.28515625 301.19140625 c 1
EndSplineSet
EndChar
StartChar: A
Encoding: 65 65 43
Width: 1000
Flags: H
LayerCount: 2
Fore
SplineSet
531.7890625 574.6171875 m 5
 531.790039062 574.6171875 l 5
 531.790039062 574.6171875 534.751953125 552.994140625 529.392578125 525.26171875 c 4
 524.033203125 497.53125 486.384765625 423.598632812 486.384765625 423.598632812 c 5
 522.201171875 425.322265625 537.853515625 414.981445312 537.853515625 414.981445312 c 5
 575.36328125 398.529296875 596.236328125 358.05859375 600.225585938 350.967773438 c 4
 604.212890625 343.877929688 638.912109375 272.086914062 636.91796875 197.63671875 c 4
 635.25390625 135.495117188 620.669921875 -19.107421875 429.830078125 7.3984375 c 4
 271.321289062 29.4140625 359.884765625 249.203125 448.375976562 238.947265625 c 4
 481.6796875 232.079101562 454.95703125 181.336914062 438.8046875 173.138671875 c 4
 305.770507812 105.618164062 508.069335938 -47.578125 568.919921875 129.982421875 c 4
 598.786132812 217.1328125 563.475585938 373.383789062 483.140625 362.024414062 c 4
 458.193359375 358.49609375 438.016601562 337.895507812 417.005859375 317.684570312 c 4
 395.99609375 297.471679688 381.331054688 314.86328125 381.331054688 314.86328125 c 5
 358.485351562 338.9921875 381.470703125 362.650390625 381.470703125 362.650390625 c 5
 381.470703125 362.650390625 438.157226562 437.543945312 461.141601562 473.422851562 c 4
 500.811523438 535.34765625 522.688476562 561.373046875 531.7890625 574.6171875 c 5
EndSplineSet
EndChar
StartChar: B
Encoding: 66 66 44
Width: 1000
Flags: H
LayerCount: 2
Fore
SplineSet
583.068359375 574.529296875 m 5
 582.580078125 548.666015625 580.194335938 528.482421875 538.4453125 456.877929688 c 5
 551.6640625 453.94140625 592.537109375 416.501953125 598.59765625 352.15234375 c 4
 601.135742188 325.204101562 592.986328125 289.145507812 592.986328125 289.145507812 c 6
 596.616210938 287.12890625 632.412109375 264.75390625 633.287109375 166.330078125 c 4
 634.587890625 116.62109375 602.912109375 -1.1845703125 481.560546875 4.009765625 c 4
 388.208984375 3.2919921875 380.307617188 84.060546875 382.759765625 113.999023438 c 4
 383.323242188 120.893554688 398.606445312 179.50390625 415.888671875 145.754882812 c 5
 486.33203125 -94.146484375 635.99609375 125.340820312 566.755859375 232.122070312 c 5
 473.112304688 138.478515625 396.5390625 321.166015625 554.639648438 305.900390625 c 5
 569.09765625 342.717773438 529.927734375 415.423828125 503.556640625 406.989257812 c 5
 460.40625 347.451171875 451.381835938 355.286132812 451.381835938 355.286132812 c 5
 425.436523438 354.032226562 421.490234375 381.606445312 421.490234375 381.606445312 c 5
 421.490234375 381.606445312 438.693359375 404.794921875 478.17578125 458.06640625 c 4
 517.658203125 511.337890625 542.739257812 543.819335938 542.739257812 543.819335938 c 6
 554.956054688 556.028320312 569.235351562 564.549804688 583.068359375 574.529296875 c 5
543.702148438 262.077148438 m 5
 537.301757812 280.739257812 520.220703125 283.883789062 502.124023438 276.502929688 c 4
 476.982421875 266.249023438 503.434570312 182.586914062 543.702148438 262.077148438 c 5
EndSplineSet
EndChar
StartChar: C
Encoding: 67 67 45
Width: 1000
Flags: H
LayerCount: 2
Fore
SplineSet
374.56640625 572.838867188 m 5
 381.891601562 568.9140625 407.8515625 546.994140625 419.415039062 529.133789062 c 4
 449.916015625 476.82421875 466.84375 411.734375 462.000976562 351.146484375 c 5
 656.078125 392.188476562 603.961914062 385.041015625 652.083984375 396.896484375 c 4
 665.903320312 396.85546875 699.137695312 370.65234375 663.646484375 329.5234375 c 4
 491.955078125 151.10546875 594.225585938 -17.0205078125 742.331054688 58.2548828125 c 5
 690.751953125 29.435546875 629.303710938 -19.3115234375 570.578125 18.4580078125 c 4
 545.479492188 37.88671875 526.034179688 76.0234375 535.341796875 145.904296875 c 4
 544.647460938 215.783203125 581.578125 324.823242188 581.578125 324.823242188 c 5
 506.27734375 309.155273438 456.359375 322.31640625 456.359375 322.31640625 c 5
 436.110351562 233.282226562 413.314453125 126.01171875 324.654296875 79.25 c 4
 312.810546875 74.548828125 279.024414062 68.6279296875 281.787109375 94.91796875 c 4
 286.16796875 136.576171875 498.029296875 237.516601562 376.688476562 544.331054688 c 5
 374.56640625 572.838867188 l 5
EndSplineSet
EndChar
StartChar: D
Encoding: 68 68 46
Width: 1000
Flags: H
LayerCount: 2
Fore
SplineSet
309.575195312 474.494140625 m 5
 357.094726562 424.418945312 551.93359375 413.2734375 657.895507812 536.4375 c 5
 774.130859375 715.836914062 762.432617188 186.579101562 562.052734375 32.0693359375 c 4
 537.153320312 12.869140625 494.852539062 -2.73046875 454.052734375 6.869140625 c 4
 413.252929688 16.4697265625 362.252929688 52.4697265625 362.252929688 52.4697265625 c 5
 402.684570312 42.7177734375 468.459960938 39.216796875 528.194335938 91.7646484375 c 4
 556.950195312 113.630859375 592.112304688 183.448242188 591.197265625 194.436523438 c 5
 536.325195312 170.028320312 453.118164062 184.16796875 423.400390625 236.014648438 c 4
 413.430664062 253.409179688 436.977539062 247.681640625 436.977539062 247.681640625 c 5
 472.834960938 239.01171875 560.858398438 229.213867188 610.500976562 243.651367188 c 5
 610.500976562 243.651367188 658.744140625 418.279296875 655.5625 441.401367188 c 5
 536.48046875 363.787109375 361.588867188 351.614257812 309.575195312 474.494140625 c 5
EndSplineSet
EndChar
StartChar: E
Encoding: 69 69 47
Width: 1000
Flags: H
LayerCount: 2
Fore
SplineSet
306.305664062 574.111328125 m 5
 306.305664062 574.11328125 l 5
 306.305664062 574.11328125 322.564453125 575.166015625 345.165039062 566.080078125 c 4
 367.765625 556.99609375 389.259765625 531.958007812 389.259765625 531.958007812 c 5
 465.482421875 559.876953125 512.013671875 564.530273438 562.975585938 561.649414062 c 4
 767.5078125 552.793945312 753.564453125 295.802734375 670.875 110.803710938 c 4
 648.241210938 67.3388671875 599.438476562 28.6455078125 557.4375 12.498046875 c 5
 664.357421875 118.5546875 760.096679688 501.571289062 533.8046875 521.626953125 c 4
 505.131835938 527.578125 395.456054688 521.78125 395.456054688 521.78125 c 5
 444.59375 431.50390625 449.83984375 151.838867188 348.709960938 24.8896484375 c 4
 341.620117188 17.1357421875 312.150390625 -5.6875 287.111328125 8.4931640625 c 4
 262.073242188 22.6748046875 254.096679688 40.400390625 254.096679688 40.400390625 c 5
 254.096679688 40.400390625 258.971679688 34.41796875 269.385742188 27.548828125 c 4
 279.798828125 20.6806640625 283.124023438 32.6455078125 283.124023438 32.6455078125 c 5
 346.916015625 132.213867188 364.260742188 227.689453125 372.879882812 345.87109375 c 5
 376.506835938 472.100585938 294.140625 568.1484375 306.305664062 574.111328125 c 5
EndSplineSet
EndChar
StartChar: F
Encoding: 70 70 48
Width: 1000
Flags: H
LayerCount: 2
Fore
SplineSet
309.200195312 574.1328125 m 6
 309.200195312 574.1328125 l 5
 314.833007812 574.002929688 328.215820312 572.892578125 345.165039062 566.080078125 c 4
 367.766601562 556.995117188 389.258789062 531.95703125 389.258789062 531.95703125 c 5
 465.481445312 559.875976562 512.014648438 564.528320312 562.977539062 561.647460938 c 4
 767.5078125 552.791992188 753.563476562 295.799804688 670.874023438 110.801757812 c 4
 648.241210938 67.3359375 599.4375 28.64453125 557.436523438 12.498046875 c 5
 664.356445312 118.552734375 760.096679688 501.568359375 533.8046875 521.623046875 c 4
 505.131835938 527.575195312 395.455078125 521.778320312 395.455078125 521.778320312 c 5
 444.592773438 431.5 449.840820312 151.837890625 348.711914062 24.888671875 c 4
 341.620117188 17.1337890625 312.151367188 -5.6884765625 287.11328125 8.4921875 c 4
 262.075195312 22.6728515625 254.096679688 40.3974609375 254.096679688 40.3974609375 c 5
 254.096679688 40.3974609375 258.970703125 34.4150390625 269.384765625 27.546875 c 4
 279.799804688 20.677734375 283.124023438 32.64453125 283.124023438 32.64453125 c 5
 346.916015625 132.212890625 364.260742188 227.6875 372.879882812 345.868164062 c 5
 376.506835938 472.09765625 294.140625 568.146484375 306.305664062 574.109375 c 5
 306.305664062 574.111328125 l 5
 306.305664062 574.111328125 307.323242188 574.17578125 309.200195312 574.1328125 c 6
487.653320312 401.194335938 m 6
 487.653320312 401.194335938 488.909179688 399.313476562 490.161132812 391.793945312 c 4
 510.235351562 346.708007812 574.837890625 227.5234375 636.186523438 240.755859375 c 5
 618.638671875 226.02734375 l 5
 541.764648438 176.891601562 483.17578125 327.626953125 479.821289062 363.27734375 c 4
 477.314453125 389.913085938 487.653320312 401.194335938 487.653320312 401.194335938 c 6
EndSplineSet
EndChar
StartChar: G
Encoding: 71 71 49
Width: 1000
Flags: H
LayerCount: 2
Fore
SplineSet
309.200195312 574.1328125 m 6
 309.200195312 574.1328125 l 5
 314.833007812 574.002929688 328.215820312 572.892578125 345.165039062 566.080078125 c 4
 367.766601562 556.995117188 389.258789062 531.95703125 389.258789062 531.95703125 c 5
 465.481445312 559.875976562 512.014648438 564.528320312 562.977539062 561.647460938 c 4
 767.5078125 552.791992188 753.563476562 295.799804688 670.874023438 110.801757812 c 4
 648.241210938 67.3359375 599.4375 28.64453125 557.436523438 12.498046875 c 5
 664.356445312 118.552734375 760.096679688 501.568359375 533.8046875 521.623046875 c 4
 505.131835938 527.575195312 395.455078125 521.778320312 395.455078125 521.778320312 c 5
 444.592773438 431.5 449.840820312 151.837890625 348.711914062 24.888671875 c 4
 341.620117188 17.1337890625 312.151367188 -5.6884765625 287.11328125 8.4921875 c 4
 262.075195312 22.6728515625 254.096679688 40.3974609375 254.096679688 40.3974609375 c 5
 254.096679688 40.3974609375 258.970703125 34.4150390625 269.384765625 27.546875 c 4
 279.799804688 20.677734375 283.124023438 32.64453125 283.124023438 32.64453125 c 5
 346.916015625 132.212890625 364.260742188 227.6875 372.879882812 345.868164062 c 5
 376.506835938 472.09765625 294.140625 568.146484375 306.305664062 574.109375 c 5
 306.305664062 574.111328125 l 5
 306.305664062 574.111328125 307.323242188 574.17578125 309.200195312 574.1328125 c 6
485.625976562 445.556640625 m 5
 509.423828125 401.065429688 630.469726562 340.625 617.86328125 328.98828125 c 4
 573.293945312 287.84765625 471.282226562 369.469726562 485.625976562 445.556640625 c 5
456.484375 345.595703125 m 5
 506.267578125 284.708007812 575.440429688 245.900390625 629.143554688 219.938476562 c 5
 573.1875 153.838867188 439.16015625 274.89453125 456.484375 345.595703125 c 5
EndSplineSet
EndChar
StartChar: S
Encoding: 83 83 87
Width: 1000
Flags: HO
LayerCount: 2
Fore
SplineSet
489.65234375 733.888671875 m 5
 496.90234375 726.42578125 501.307617188 720.1484375 503.688476562 714.87109375 c 4
 513.831054688 692.399414062 487.252929688 688.120117188 487.252929688 688.120117188 c 5
 460.65234375 682.1484375 438.961914062 664.204101562 421.59765625 641.85546875 c 4
 379.999023438 588.321289062 363.224609375 509.51953125 363.224609375 509.51953125 c 5
 349.624023438 389.841796875 390.13671875 370.141601562 431.131835938 377.98828125 c 4
 563.12109375 403.255859375 529.05078125 563.302734375 580.274414062 629.625976562 c 4
 608.584960938 666.282226562 629.482421875 637.42578125 629.482421875 637.42578125 c 5
 660.249023438 584.42578125 440.263671875 132.41796875 692.169921875 118.46484375 c 5
 747.444335938 70.1103515625 746.76953125 42.2900390625 746.76953125 42.2900390625 c 5
 640.266601562 20.453125 598.474609375 72.70703125 598.474609375 72.70703125 c 5
 518.260742188 168.63671875 521.838867188 269.28515625 521.838867188 269.28515625 c 5
 486.52734375 208.252929688 421.827148438 5.8935546875 335.735351562 40.669921875 c 4
 288.346679688 59.8134765625 352.440429688 124.2421875 352.440429688 124.2421875 c 5
 481.948242188 284.026367188 452.706054688 320.818359375 451.576171875 321.94921875 c 5
 437.08203125 306.3515625 388.60546875 311.453125 388.60546875 311.453125 c 5
 246.493164062 363.9296875 316.842773438 544.396484375 329.794921875 574.620117188 c 4
 383.48046875 699.91015625 489.65234375 733.888671875 489.65234375 733.888671875 c 5
EndSplineSet
EndChar
StartChar: T
Encoding: 84 84 86
Width: 1000
Flags: H
LayerCount: 2
Fore
SplineSet
518.841796875 732.41015625 m 4
 520.48046875 732.3984375 521.842773438 731.70703125 522.931640625 730.341796875 c 4
 532.844726562 717.909179688 533.673828125 696.06640625 504.25390625 659.682617188 c 4
 474.833984375 623.297851562 448.938476562 563.829101562 448.938476562 563.829101562 c 5
 491.49609375 589.487304688 537.58984375 597.076171875 550.966796875 532.266601562 c 4
 567.990234375 454.71484375 450.58203125 373.28515625 424.341796875 235.08203125 c 4
 416.287109375 192.662109375 443.202148438 191.735351562 475.17578125 211.75390625 c 5
 484.576171875 228.466796875 491.884765625 232.9921875 491.884765625 232.9921875 c 5
 516.256835938 242.740234375 527.748046875 221.500976562 523.569335938 206.529296875 c 4
 507.93359375 162.415039062 479.048828125 88.92578125 450.319335938 52.0234375 c 4
 429.556640625 31.71484375 421.494140625 55.3388671875 423.163085938 73.2607421875 c 4
 422.466796875 92.7578125 452.891601562 157.438476562 452.891601562 157.438476562 c 5
 424.86328125 149.151367188 405.83203125 156.48046875 394.131835938 171.013671875 c 4
 336.744140625 253.20703125 431.415039062 369.3671875 472.041015625 435.62890625 c 4
 500.185546875 479.310546875 539.233398438 583.008789062 457.907226562 522.985351562 c 4
 403.243164062 481.204101562 391.263671875 446.076171875 381.86328125 432.498046875 c 4
 372.462890625 418.919921875 359.232421875 421.005859375 349.134765625 429.013671875 c 4
 339.038085938 437.021484375 344.672851562 451.623046875 344.672851562 451.623046875 c 5
 441.813476562 638.641601562 499.50390625 732.56640625 518.841796875 732.41015625 c 4
598.837890625 451.70703125 m 4
 606.868164062 451.854492188 624.88671875 449.8984375 640.553710938 431.87890625 c 4
 681.470703125 384.82421875 679.30078125 269.610351562 647.866210938 219.838867188 c 4
 631.154296875 193.377929688 599.470703125 209.7421875 607.478515625 239.685546875 c 4
 643.099609375 372.875976562 603.447265625 438.8359375 594.594726562 451.375976562 c 5
 594.594726562 451.375976562 596.162109375 451.659179688 598.837890625 451.70703125 c 4
537.907226562 341.185546875 m 4
 550.69140625 341.185546875 561.05859375 330.8203125 561.056640625 318.03515625 c 4
 561.056640625 305.250976562 550.69140625 294.885742188 537.907226562 294.885742188 c 4
 525.123046875 294.883789062 514.756835938 305.250976562 514.756835938 318.03515625 c 4
 514.755859375 330.821289062 525.12109375 341.1875 537.907226562 341.185546875 c 4
EndSplineSet
EndChar
StartChar: U
Encoding: 85 85 85
Width: 1000
Flags: H
LayerCount: 2
Fore
SplineSet
477.885742188 710.928710938 m 4
 534.833984375 712.681640625 589.487304688 676.245117188 579.998046875 616.944335938 c 4
 571.084960938 561.236328125 485.573242188 443.413085938 485.573242188 443.413085938 c 5
 616.22265625 432.200195312 665.396484375 347.8125 684.716796875 204.647460938 c 4
 687.841796875 181.4921875 689.99609375 156.788085938 691.966796875 130.6328125 c 4
 692.443359375 124.309570312 689.651367188 95.0224609375 668.922851562 105.119140625 c 4
 621.569335938 128.1875 656.407226562 217.420898438 637.654296875 275.028320312 c 4
 610.170898438 359.458007812 552.833984375 399.1484375 498.276367188 394.333007812 c 4
 335.782226562 379.991210938 397.21484375 103.723632812 327.360351562 103.034179688 c 4
 305.37890625 102.819335938 307.86328125 162.921875 307.86328125 162.921875 c 5
 324.01953125 284.923828125 427.600585938 436.752929688 427.600585938 436.752929688 c 5
 460.977539062 492.834960938 590.541992188 633.526367188 493.338867188 661.8125 c 4
 446.518554688 675.4375 356.91796875 610.081054688 354.616210938 531.431640625 c 5
 344.37890625 523.223632812 333.77734375 528.921875 323.120117188 532.752929688 c 4
 305.499023438 545.775390625 348.893554688 654.65625 422.463867188 695.877929688 c 4
 439.665039062 705.517578125 458.90234375 710.34375 477.885742188 710.928710938 c 4
500.521484375 264.131835938 m 4
 518.05859375 264.131835938 532.276367188 249.9140625 532.274414062 232.375 c 4
 532.274414062 214.838867188 518.057617188 200.622070312 500.521484375 200.622070312 c 4
 482.982421875 200.620117188 468.764648438 214.837890625 468.764648438 232.375 c 4
 468.763671875 249.9140625 482.982421875 264.1328125 500.521484375 264.131835938 c 4
EndSplineSet
EndChar
StartChar: V
Encoding: 86 86 84
Width: 1000
Flags: H
LayerCount: 2
Fore
SplineSet
544.43359375 644.8671875 m 4
 547.8828125 722.92578125 605.658203125 745.788085938 647.318359375 741.486328125 c 4
 702.940429688 735.740234375 655.4140625 712.759765625 655.4140625 712.759765625 c 5
 625.951171875 717.364257812 572.94921875 698.267578125 587.521484375 643.822265625 c 5
 761.28125 574.861328125 717.853515625 403.251953125 693.80078125 335.42578125 c 4
 667.6875 261.786132812 610.236328125 178.224609375 563.755859375 118.947265625 c 4
 492.096679688 27.5625 352.250976562 12.1416015625 341.271484375 29.638671875 c 4
 327.291015625 51.91796875 346.234375 64.109375 346.234375 64.109375 c 5
 413.083984375 94.138671875 433.712890625 118.423828125 433.712890625 118.423828125 c 5
 506.568359375 192.323242188 496.123046875 237.240234375 496.123046875 237.240234375 c 5
 494.698242188 256.4375 472.953125 233.150390625 426.138671875 227.578125 c 4
 404.205078125 224.965820312 314.11328125 223.919921875 282.517578125 291.03125 c 4
 226.081054688 410.900390625 346.47265625 506.1875 395.587890625 505.68359375 c 4
 446.509765625 505.161132812 435.01953125 484.009765625 435.01953125 484.009765625 c 6
 434.991210938 483.8984375 433.82421875 480.376953125 399.16796875 481.611328125 c 4
 345.947265625 483.50390625 241.772460938 300.662109375 371.5625 271.970703125 c 4
 445.984375 255.51953125 509.44140625 291.81640625 509.44140625 291.81640625 c 6
 516.155273438 292.635742188 611.622070312 301.166015625 480.455078125 104.0625 c 5
 559.78515625 148.529296875 713.591796875 362.796875 667.42578125 516.388671875 c 4
 640.625976562 605.546875 547.438476562 580.115234375 544.43359375 644.8671875 c 4
419.08984375 408.541015625 m 4
 435.530273438 408.540039062 448.859375 395.212890625 448.859375 378.7734375 c 4
 448.859375 362.33203125 435.530273438 349.00390625 419.08984375 349.00390625 c 4
 402.650390625 349.00390625 389.322265625 362.33203125 389.322265625 378.7734375 c 4
 389.322265625 395.212890625 402.650390625 408.540039062 419.08984375 408.541015625 c 4
EndSplineSet
EndChar
StartChar: W
Encoding: 87 87 83
Width: 1000
Flags: H
LayerCount: 2
Fore
SplineSet
502.459960938 700.887695312 m 0
 562.407226562 703.762695312 615.166992188 679.396484375 622.513671875 624.291015625 c 0
 628.81640625 577.020507812 561.45703125 476.572265625 561.45703125 476.572265625 c 1
 561.45703125 476.572265625 627.633789062 522.263671875 697.357421875 525.809570312 c 0
 767.081054688 529.354492188 748.172851562 476.177734375 748.172851562 476.177734375 c 1
 713.11328125 387.940429688 639.591796875 329.465820312 639.591796875 329.465820312 c 1
 705.327148438 304.955078125 701.90234375 235.168945312 678.510742188 189.634765625 c 0
 612.432617188 61.009765625 458.162109375 22.5283203125 442.385742188 50.9248046875 c 0
 424.280273438 83.513671875 456.870117188 86.296875 456.870117188 86.296875 c 1
 549.299804688 49.1533203125 755.159179688 314.609375 605.888671875 294.369140625 c 0
 569.952148438 289.497070312 538.732421875 322.676757812 568.28515625 344.505859375 c 1
 646.016601562 351.161132812 713.912109375 465.8359375 701.70703125 479.596679688 c 0
 659.92578125 514.693359375 535.694335938 416.646484375 535.694335938 416.646484375 c 1
 419.662109375 337.909179688 348.907226562 127.893554688 284.141601562 91.912109375 c 0
 257.552734375 77.140625 250.100585938 117.776367188 259.125976562 128.744140625 c 0
 347.446289062 236.0703125 399.44921875 355.583984375 482.772460938 446.171875 c 1
 698.883789062 721.09375 411.829101562 728.581054688 345.172851562 518.037109375 c 1
 316.204101562 487.956054688 308.169921875 510.840820312 308.169921875 510.840820312 c 1
 308.169921875 510.840820312 289.654296875 539.990234375 339.288085938 614.046875 c 0
 375.380859375 667.8984375 442.513671875 698.013671875 502.459960938 700.887695312 c 0
507.888671875 253.400390625 m 0
 525.424804688 253.400390625 539.641601562 239.184570312 539.641601562 221.646484375 c 0
 539.643554688 204.109375 525.42578125 189.890625 507.888671875 189.890625 c 0
 490.349609375 189.888671875 476.130859375 204.107421875 476.131835938 221.646484375 c 0
 476.131835938 239.185546875 490.350585938 253.401367188 507.888671875 253.400390625 c 0
EndSplineSet
EndChar
StartChar: X
Encoding: 88 88 82
Width: 1000
Flags: H
LayerCount: 2
Fore
SplineSet
517.985351562 748.608398438 m 5
 507.096679688 742.36328125 l 6
 474.422851562 725.705078125 470.899414062 683.741210938 470.899414062 683.741210938 c 5
 460.60546875 526.012695312 512.203125 516.350585938 513.219726562 360.42578125 c 5
 561.104492188 420.46484375 617.680664062 598.064453125 624.166992188 631.30859375 c 4
 632.25 672.747070312 676.60546875 689.26953125 675.685546875 649.708007812 c 4
 674.766601562 610.1484375 723.1484375 348.551757812 808.166992188 339.668945312 c 4
 866.0390625 333.622070312 763.057617188 309.314453125 734.099609375 329.512695312 c 4
 699.599609375 353.577148438 659.37890625 419.00390625 648.768554688 590.181640625 c 5
 647.977539062 578.55859375 588.84765625 349.7265625 516.216796875 295.19921875 c 5
 586.802734375 305.98046875 649 302.40234375 649 302.40234375 c 5
 717.547851562 297.756835938 738.685546875 290.709960938 755.021484375 288.788085938 c 4
 771.357421875 286.866210938 780.329101562 291.030273438 780.329101562 291.030273438 c 5
 766.6875 278.57421875 756.05078125 262.791015625 736.765625 258.033203125 c 4
 711.4609375 249.705078125 654.123046875 259.959960938 654.123046875 259.959960938 c 5
 615.044921875 267.967773438 507.735351562 258.033203125 507.735351562 258.033203125 c 5
 503.760742188 182.875 454.75 74.0302734375 346.61328125 52.7080078125 c 4
 323.870117188 48.2236328125 271.333984375 53.66796875 267.810546875 118.372070312 c 4
 261.159179688 240.517578125 463.485351562 285.645507812 466.091796875 286.22265625 c 4
 466.149414062 287.140625 466.20703125 288.0625 466.263671875 288.981445312 c 4
 454.1328125 295.702148438 441.91015625 309.0078125 429.78125 330.46875 c 4
 368.096679688 439.598632812 352.29296875 574.078125 319.782226562 601.056640625 c 4
 307.581054688 611.181640625 263.08984375 385.295898438 268.844726562 339.072265625 c 4
 274.7109375 291.950195312 231.922851562 370.48828125 231.922851562 370.48828125 c 5
 231.922851562 370.48828125 257.28125 606.46875 306.9609375 645.108398438 c 4
 361.029296875 684.793945312 423.040039062 408.2265625 468.635742188 351.025390625 c 5
 469.3046875 412.400390625 464.291992188 473.384765625 447.583984375 533.56640625 c 4
 441.919921875 560.986328125 425.26171875 659.5859375 465.29296875 713.856445312 c 4
 489.157226562 746.209960938 517.985351562 748.608398438 517.985351562 748.608398438 c 5
461.60546875 251.3125 m 5
 461.60546875 251.3125 341.490234375 219.275390625 309.77734375 172.5078125 c 5
 309.77734375 172.5078125 287.9921875 144.96484375 303.3671875 107.806640625 c 4
 318.7421875 70.650390625 387.610351562 115.494140625 402.344726562 129.26953125 c 4
 417.081054688 143.04296875 452.95703125 182.122070312 461.60546875 251.3125 c 5
EndSplineSet
EndChar
StartChar: Y
Encoding: 89 89 81
Width: 1000
Flags: H
LayerCount: 2
Fore
SplineSet
447.021484375 737.928710938 m 5
 447.021484375 737.928710938 l 6
 448.961914062 738.001953125 450.891601562 737.983398438 452.799804688 737.860351562 c 4
 470.06640625 736.74609375 520.34375 711.986328125 507.915039062 629.09765625 c 4
 487.38671875 492.188476562 397.2578125 470.830078125 362.521484375 318.728515625 c 4
 340.75390625 223.413085938 373.828125 127.41015625 476.540039062 116.091796875 c 5
 404.8359375 193.524414062 455.7734375 412.013671875 528.537109375 351.119140625 c 4
 538.51171875 342.772460938 552.219726562 310.732421875 529.581054688 308.991210938 c 4
 454.55078125 303.220703125 487.915039062 159.56640625 526.255859375 118.978515625 c 5
 637.623046875 149.709960938 714.328125 348.521484375 572.568359375 394.56640625 c 5
 572.568359375 394.56640625 545.607421875 402.936523438 547.946289062 430.509765625 c 5
 547.946289062 430.509765625 555.45703125 449.959960938 583.03125 445.529296875 c 4
 671.838867188 420.626953125 711.782226562 355.665039062 700.721679688 265.407226562 c 4
 696.3125 238.16015625 662.635742188 76.9287109375 496.377929688 66.2353515625 c 4
 392.810546875 59.57421875 293.657226562 152.694335938 311.727539062 306.76953125 c 4
 330.477539062 466.62890625 532.915039062 594.77734375 468.0625 701.42578125 c 4
 454.5078125 723.71484375 420.802734375 732.76171875 386.32421875 714.966796875 c 5
 386.32421875 714.966796875 417.91796875 736.819335938 447.021484375 737.928710938 c 5
EndSplineSet
EndChar
StartChar: Z
Encoding: 90 90 80
Width: 1000
Flags: H
LayerCount: 2
Fore
SplineSet
500.219726562 753.504882812 m 4
 500.493164062 753.518554688 500.76953125 753.471679688 501.047851562 753.3515625 c 4
 527.540039062 732.822265625 475.348632812 659.306640625 475.053710938 634.779296875 c 5
 515.528320312 644.529296875 527.344726562 610.8515625 527.344726562 610.8515625 c 5
 545.366210938 570.671875 521.141601562 523.104492188 521.141601562 523.104492188 c 5
 521.141601562 523.104492188 473.282226562 421.474609375 465.600585938 381.294921875 c 4
 457.918945312 341.115234375 466.486328125 321.9140625 471.803710938 310.982421875 c 4
 477.12109375 300.051757812 480.666015625 288.823242188 480.666015625 288.823242188 c 6
 485.983398438 260.7578125 458.509765625 277.598632812 458.509765625 277.598632812 c 5
 446.516601562 285.556640625 439.067382812 297.7890625 434.797851562 312.173828125 c 4
 428.126953125 334.638671875 429.205078125 362.348632812 432.806640625 387.205078125 c 4
 443.78515625 462.958007812 522.69921875 568.541015625 496.329101562 601.036132812 c 4
 488.275390625 610.958984375 446.038085938 590.740234375 431.587890625 535.220703125 c 4
 425.973632812 513.653320312 413.26953125 513.060546875 413.26953125 513.060546875 c 5
 396.725585938 511.879882812 395.543945312 531.083007812 395.543945312 531.083007812 c 5
 412.586914062 605.212890625 459.439453125 693.114257812 495.200195312 748.248046875 c 4
 496.556640625 750.338867188 498.30859375 753.411132812 500.219726562 753.504882812 c 4
538.509765625 268.7734375 m 4
 542.150390625 268.713867188 548.603515625 265.950195312 556.481445312 259.270507812 c 4
 564.051757812 252.8515625 581.100585938 230.728515625 598.282226562 203.595703125 c 4
 627.969726562 156.712890625 658.047851562 94.8671875 640.293945312 73.2265625 c 4
 610.642578125 37.0810546875 562.92578125 169.713867188 555.853515625 188.533203125 c 4
 546.004882812 214.7421875 527.541015625 259.654296875 535.860351562 267.973632812 c 4
 536.397460938 268.510742188 537.295898438 268.793945312 538.509765625 268.7734375 c 4
392.475585938 264.823242188 m 4
 397.295898438 264.763671875 399.954101562 263.236328125 399.954101562 263.236328125 c 5
 394.33984375 259.690429688 365.094726562 220.692382812 354.163085938 162.786132812 c 4
 343.176757812 83.595703125 374.114257812 70.9375 444.204101562 67.486328125 c 4
 456.360351562 65.4609375 464.196289062 62.130859375 461.469726562 55.5419921875 c 4
 451.788085938 32.1455078125 336.202148438 5.794921875 319.891601562 98.3828125 c 4
 309.845703125 155.401367188 342.344726562 231.623046875 364.20703125 251.416992188 c 4
 376.50390625 262.551757812 386.27734375 264.900390625 392.475585938 264.823242188 c 4
469.22265625 193.223632812 m 4
 482.006835938 193.223632812 492.369140625 182.861328125 492.369140625 170.076171875 c 4
 492.37109375 157.291992188 482.006835938 146.926757812 469.22265625 146.926757812 c 4
 456.436523438 146.924804688 446.071289062 157.291015625 446.072265625 170.076171875 c 4
 446.072265625 182.861328125 456.438476562 193.224609375 469.22265625 193.223632812 c 4
EndSplineSet
EndChar
StartChar: a
Encoding: 97 97 0
Width: 1000
Flags: H
LayerCount: 2
Fore
SplineSet
581.383789062 572.650390625 m 4
 631.8046875 571.311523438 646.413085938 522.796875 638.383789062 521.650390625 c 4
 594.732421875 529.60546875 546.522460938 545.18359375 500.266601562 543.102539062 c 4
 492.932617188 542.771484375 486.400390625 541.645507812 479.219726562 540.30859375 c 5
 503.946289062 529.76171875 581.85546875 477.173828125 439.41796875 260.732421875 c 4
 434.284179688 255.817382812 404.93359375 316.7734375 423.423828125 310.291015625 c 4
 442.557617188 303.583007812 549.098632812 512.0546875 465.438476562 535.954101562 c 5
 411.204101562 503.616210938 324.482421875 426.643554688 349.18359375 250.450195312 c 4
 372.62890625 83.21484375 489.15234375 -61.7578125 595.443359375 87.390625 c 4
 629.08203125 134.591796875 698.951171875 102.1328125 701.16796875 99.5849609375 c 4
 704.561523438 95.6865234375 698.015625 65.48046875 675.583984375 42.849609375 c 4
 644.795898438 11.7890625 299.64453125 -93.287109375 295.18359375 233.650390625 c 4
 290.6484375 566.10546875 537.232421875 573.822265625 581.383789062 572.650390625 c 4
EndSplineSet
EndChar
StartChar: b
Encoding: 98 98 5
Width: 1000
Flags: H
LayerCount: 2
Fore
SplineSet
605.022460938 734.592773438 m 1
 605.022460938 734.592773438 l 2
 608.770507812 734.734375 612.848632812 732.53125 616.624023438 725.485351562 c 0
 637.788085938 685.986328125 689.671875 194.470703125 586.615234375 298.631835938 c 0
 480.08203125 406.3046875 436.791992188 416.8125 399.442382812 394.544921875 c 0
 390.630859375 389.29296875 383.043945312 381.708984375 377.212890625 371.948242188 c 0
 322.391601562 280.180664062 409.444335938 21.8974609375 490.763671875 61.4736328125 c 0
 493.829101562 61.2666015625 546.2578125 89.5234375 546.2578125 165.146484375 c 1
 546.2578125 165.146484375 544.706054688 183.513671875 556.995117188 165.146484375 c 1
 556.995117188 165.146484375 550.544921875 -9.8427734375 624.448242188 -18.2568359375 c 1
 624.448242188 -18.2568359375 539.203125 -57.0390625 542.130859375 104.302734375 c 1
 533.783203125 85.1513671875 496.078125 2.7421875 464.91796875 1.6884765625 c 0
 344.77734375 -2.3720703125 272.565429688 282.904296875 364.040039062 387.482421875 c 0
 372.984375 397.708007812 383.494140625 406.20703125 395.677734375 412.537109375 c 0
 440.899414062 436.038085938 485.719726562 433.658203125 582.475585938 385.5546875 c 1
 596.18359375 456.811523438 600.333007812 601.404296875 578.350585938 664.42578125 c 1
 578.350585938 664.42578125 496.3984375 564.9140625 411.885742188 537.474609375 c 0
 327.374023438 510.03515625 349.647460938 591.478515625 349.647460938 591.478515625 c 1
 349.647460938 591.478515625 355.856445312 548.276367188 417.426757812 581.130859375 c 0
 478.99609375 613.986328125 574.71484375 702.4609375 591.530273438 725.485351562 c 0
 591.909179688 725.5 597.8671875 734.322265625 605.022460938 734.592773438 c 1
EndSplineSet
EndChar
StartChar: c
Encoding: 99 99 6
Width: 1000
Flags: H
LayerCount: 2
Fore
SplineSet
363.873046875 469.541015625 m 1
 361.142578125 471.91796875 357.6328125 487.756835938 357.6328125 487.756835938 c 1
 340.922851562 626.557617188 590.880859375 778.216796875 629.461914062 686.548828125 c 0
 654.767578125 626.42578125 594.639648438 515.9453125 530.79296875 425.5859375 c 1
 620.318359375 434.79296875 478.307617188 192.801757812 468.1015625 143.306640625 c 0
 456.93359375 89.140625 470.134765625 41.1484375 525.333007812 1.8896484375 c 1
 521.116210938 2.0146484375 489.842773438 1.97265625 489.842773438 1.97265625 c 2
 401.577148438 -0.796875 416.817382812 88.0546875 428.612304688 127.79296875 c 0
 445.826171875 185.783203125 475.025390625 243.841796875 500.76171875 298.07421875 c 0
 508.676757812 319.661132812 588.901367188 447.612304688 512.073242188 401.622070312 c 1
 476.619140625 352.024414062 426.345703125 309.290039062 402.3359375 320.383789062 c 0
 399.416015625 321.734375 393.7734375 323.775390625 387.234375 331.299804688 c 1
 429.5234375 355.428710938 583.997070312 580.505859375 593.97265625 609.330078125 c 0
 649.4921875 769.745117188 483.954101562 623.237304688 439.922851562 579.629882812 c 0
 367.0703125 507.478515625 363.873046875 469.541015625 363.873046875 469.541015625 c 1
EndSplineSet
EndChar
StartChar: d
Encoding: 100 100 7
Width: 1000
Flags: H
LayerCount: 2
Fore
SplineSet
589.1640625 723.546875 m 1
 589.1640625 723.546875 l 1
 585.741210938 692.94921875 574.784179688 662.2578125 563.103515625 632.875976562 c 0
 551.270507812 602.827148438 537.475585938 572.963867188 516.151367188 548.309570312 c 1
 556.456054688 570.53125 573.532226562 518.477539062 567.465820312 467.564453125 c 0
 561.854492188 420.475585938 539.958984375 373.28515625 524.036132812 326.623046875 c 0
 492.7890625 241.759765625 418.9921875 60.013671875 549.411132812 19.205078125 c 1
 584.338867188 40.2138671875 579.002929688 101.950195312 568.499023438 132.724609375 c 0
 565.147460938 143.342773438 571.15234375 148.110351562 575.349609375 154.704101562 c 0
 577.147460938 157.528320312 581.828125 162.499023438 584.741210938 159.856445312 c 0
 594.123046875 151.345703125 584.936523438 62.09375 609.111328125 7.47265625 c 0
 615.404296875 -6.74609375 619.40625 -23.2646484375 634.271484375 -32.427734375 c 1
 618.227539062 -30.6279296875 601.38671875 -28.75390625 592.954101562 -17.7275390625 c 0
 577.448242188 2.5458984375 577.639648438 40.900390625 577.639648438 40.900390625 c 1
 570.223632812 24.0537109375 561.310546875 12.6728515625 550.381835938 7.6845703125 c 0
 475.08984375 -26.6767578125 386.627929688 94.4169921875 432.856445312 226.953125 c 0
 449.069335938 273.435546875 469.684570312 288.473632812 499.365234375 348.794921875 c 0
 504.401367188 359.030273438 551.083007812 455.067382812 553.299804688 504.009765625 c 0
 554.252929688 533.110351562 535.271484375 538.883789062 528.643554688 540.012695312 c 0
 522.267578125 541.09765625 509.590820312 536.500976562 509.590820312 536.500976562 c 1
 480.768554688 497.9921875 453.689453125 458.221679688 414.325195312 425.415039062 c 0
 401.55859375 414.40234375 389.590820312 401.883789062 371.736328125 395.778320312 c 0
 356.270507812 390.489257812 338.4140625 413.84375 341.93359375 422.661132812 c 0
 354.115234375 453.178710938 363.333984375 432.219726562 394.055664062 460.172851562 c 0
 424.778320312 488.125 478.497070312 556.267578125 508.375 601.336914062 c 0
 538.252929688 646.405273438 564.619140625 673.4921875 589.1640625 723.546875 c 1
EndSplineSet
EndChar
StartChar: e
Encoding: 101 101 1
Width: 1000
Flags: H
LayerCount: 2
Fore
SplineSet
581.368164062 572.650390625 m 4
 631.77734375 574.365234375 646.396484375 522.796875 638.368164062 521.650390625 c 4
 594.716796875 529.60546875 549.313476562 554.7265625 504.493164062 543.102539062 c 4
 425.71875 522.672851562 321.599609375 452.334960938 349.16796875 250.450195312 c 4
 352.4609375 226.333007812 357.861328125 202.703125 364.798828125 180.336914062 c 5
 432.76953125 147.865234375 534.53125 337.833007812 518.748046875 349.166015625 c 4
 502.831054688 360.594726562 569.598632812 371.516601562 568.517578125 364.4921875 c 4
 480.978515625 143.975585938 399.440429688 153.970703125 368.790039062 168.130859375 c 5
 412.084960938 42.3017578125 507.275390625 -36.3056640625 595.427734375 87.390625 c 4
 629.065429688 134.591796875 698.93359375 102.1328125 701.15234375 99.5849609375 c 4
 704.545898438 95.6865234375 698 65.48046875 675.568359375 42.849609375 c 4
 644.779296875 11.7890625 298.889648438 -93.2958984375 295.16796875 233.650390625 c 4
 291.3984375 564.829101562 538.788085938 571.200195312 581.368164062 572.650390625 c 4
EndSplineSet
EndChar
StartChar: f
Encoding: 102 102 8
Width: 1000
Flags: H
LayerCount: 2
Fore
SplineSet
549.454101562 785.969726562 m 1
 518.420898438 762.22265625 505.923828125 744.431640625 488.698242188 718.837890625 c 0
 467.692382812 687.626953125 444.791015625 644.344726562 438.108398438 615.455078125 c 0
 416.928710938 523.887695312 402.952148438 393.525390625 493.817382812 354.443359375 c 0
 506.26953125 349.087890625 542.1640625 373.958007812 561.666992188 391.129882812 c 0
 577.063476562 404.6875 589.359375 422.548828125 598.212890625 441.51171875 c 0
 603.822265625 453.528320312 606.744140625 466.998046875 608.076171875 480.3125 c 0
 609.41796875 493.712890625 607.907226562 507.344726562 606.096679688 520.68359375 c 0
 604.127929688 535.184570312 596.487304688 563.44921875 596.487304688 563.44921875 c 2
 594.171875 586.352539062 612.456054688 599.606445312 612.456054688 599.606445312 c 1
 626.071289062 604.387695312 652.8359375 465.387695312 656.369140625 395.825195312 c 0
 664.923828125 227.420898438 577.513671875 88.7568359375 507.881835938 39.4443359375 c 0
 481.149414062 20.51171875 442.595703125 4.8876953125 416.703125 2.7841796875 c 0
 396.427734375 1.13671875 358.01953125 2.65625 329.05078125 32.8251953125 c 1
 356.38671875 32.8251953125 396.072265625 42.69140625 425.5546875 58.06640625 c 0
 553.63671875 124.865234375 582.59375 233.971679688 601.696289062 313.688476562 c 0
 613.93359375 364.748046875 630.251953125 521.783203125 615.80859375 470.571289062 c 0
 601.194335938 418.75390625 556.67578125 322.830078125 499.025390625 308.759765625 c 0
 440.4609375 294.466796875 408.1015625 329.9375 385.876953125 371.110351562 c 0
 354.846679688 428.591796875 369.638671875 509.99609375 386.856445312 574.885742188 c 0
 417.055664062 688.693359375 504.4765625 757.255859375 549.454101562 785.969726562 c 1
EndSplineSet
EndChar
StartChar: g
Encoding: 103 103 9
Width: 1000
Flags: H
LayerCount: 2
Fore
SplineSet
341.100585938 710.624023438 m 1
 378.399414062 539.620117188 410.997070312 400.19921875 506.31640625 420.022460938 c 0
 559.586914062 431.1015625 602.836914062 468.489257812 617.607421875 542.40625 c 0
 628.68359375 597.8359375 619.840820312 633.040039062 612.174804688 660.856445312 c 0
 607.466796875 677.935546875 620.322265625 692.490234375 630.3125 702.203125 c 1
 663.181640625 710.012695312 672.678710938 466.026367188 676.25 417.715820312 c 0
 689.606445312 255.642578125 705.432617188 128.823242188 643.350585938 46.451171875 c 0
 622.608398438 18.9296875 568.209960938 0.1767578125 464.098632812 3.8759765625 c 0
 428.088867188 5.154296875 387.663085938 32.8916015625 376.4375 55.234375 c 1
 376.89453125 -34.96875 359.422851562 -96.4921875 310.948242188 -110.918945312 c 0
 239.672851562 -132.131835938 227.794921875 -107.525390625 227.794921875 -107.525390625 c 1
 383.923828125 -48.9775390625 327.071289062 220.006835938 327.071289062 220.006835938 c 1
 341.49609375 239.5234375 365.255859375 199.641601562 365.255859375 199.641601562 c 1
 367.581054688 181.412109375 369.599609375 163.702148438 371.2578125 146.588867188 c 0
 387.78125 59.265625 446.764648438 42.4140625 507.209960938 50.3203125 c 0
 579.303710938 61.494140625 645.944335938 82.45703125 651.247070312 163.135742188 c 0
 656.165039062 237.971679688 664.563476562 371.543945312 623.185546875 427.124023438 c 0
 593.1640625 467.44921875 511.735351562 377.423828125 445.998046875 392.284179688 c 0
 413.401367188 399.653320312 375.579101562 412.796875 352.887695312 485.595703125 c 0
 316.4375 602.540039062 341.100585938 710.624023438 341.100585938 710.624023438 c 1
EndSplineSet
EndChar
StartChar: h
Encoding: 104 104 10
Width: 1000
Flags: H
LayerCount: 2
Fore
SplineSet
595.2890625 695.065429688 m 1
 595.2890625 695.065429688 603.240234375 644.041015625 601.458984375 623.040039062 c 0
 595.82421875 572.388671875 565.650390625 531.275390625 542.326171875 484.114257812 c 1
 576.975585938 469.264648438 592.877929688 445.243164062 608.728515625 419.185546875 c 0
 686.59375 291.18359375 607.517578125 -70.884765625 440.728515625 15.38671875 c 0
 364.736328125 54.693359375 387.818359375 201.40234375 453.114257812 229.061523438 c 0
 511.6875 253.872070312 535.4453125 186.323242188 521.474609375 154.388671875 c 1
 519.7421875 186.94921875 507.025390625 211.353515625 487.76953125 205.013671875 c 0
 383.958984375 170.836914062 432.2421875 -38.3837890625 538.086914062 58.841796875 c 0
 570.943359375 89.0224609375 597.19921875 152.081054688 598.922851562 258.056640625 c 0
 600.125 331.951171875 594.49609375 415.995117188 530.7890625 463.525390625 c 1
 499.462890625 405.59765625 436.227539062 337.180664062 417.748046875 332.544921875 c 0
 399.202148438 329.392578125 384.504882812 336.622070312 368.642578125 348.745117188 c 0
 360.815429688 355.232421875 382.366210938 378.834960938 407.21484375 387.547851562 c 0
 501.951171875 426.830078125 588.744140625 675.93359375 595.2890625 695.065429688 c 1
EndSplineSet
EndChar
StartChar: i
Encoding: 105 105 2
Width: 1000
Flags: H
LayerCount: 2
Fore
SplineSet
581.368164062 573.104492188 m 4
 631.77734375 574.8203125 646.396484375 523.251953125 638.368164062 522.104492188 c 4
 594.716796875 530.060546875 545.541015625 554.919921875 506.19140625 541.860351562 c 4
 411.408203125 510.403320312 320.737304688 450.959960938 349.16796875 250.905273438 c 4
 364.46875 143.239257812 417.962890625 44.7490234375 482.669921875 28.1201171875 c 5
 545.2109375 81.763671875 488.85546875 261.302734375 467.016601562 245.697265625 c 4
 451.07421875 234.303710938 477.875976562 300.170898438 483.009765625 295.255859375 c 4
 600.609375 183.545898438 538.46484375 66.7783203125 496.512695312 25.8466796875 c 5
 528.407226562 23.5654296875 562.412109375 41.5166015625 595.427734375 87.845703125 c 4
 629.065429688 135.045898438 698.93359375 102.587890625 701.15234375 100.040039062 c 4
 704.545898438 96.1416015625 698 65.9345703125 675.568359375 43.3046875 c 4
 644.779296875 12.244140625 298.889648438 -92.8408203125 295.16796875 234.104492188 c 4
 291.3984375 565.284179688 538.788085938 571.655273438 581.368164062 573.104492188 c 4
EndSplineSet
EndChar
StartChar: j
Encoding: 106 106 11
Width: 1000
Flags: H
LayerCount: 2
Fore
SplineSet
557.181640625 731.348632812 m 6
 559.122070312 729.87109375 560.885742188 727.84765625 562.515625 725.369140625 c 4
 612.05859375 653.895507812 574.723632812 536.998046875 593.739257812 473.53125 c 5
 650.420898438 107.23046875 555.16796875 -67.0712890625 402.78515625 -74.8759765625 c 4
 353.849609375 -77.3828125 345.469726562 -74.5205078125 335.809570312 -50.3740234375 c 4
 309.60546875 15.1279296875 383.6875 144.720703125 394.443359375 162.71484375 c 4
 394.75390625 163.375 395.20703125 164.078125 395.720703125 164.7890625 c 4
 395.762695312 164.846679688 395.8046875 164.90234375 395.849609375 164.955078125 c 4
 402.15625 173.485351562 421.374023438 183.860351562 422.30078125 157.739257812 c 4
 424.274414062 102.15234375 456.66796875 57.611328125 456.66796875 57.611328125 c 5
 465.328125 50.203125 l 5
 420.75 28.97265625 405.512695312 79.908203125 401.233398438 118.947265625 c 5
 370.390625 36.603515625 392.956054688 -43.0654296875 448.180664062 -34.5693359375 c 5
 664.5546875 73.322265625 444.411132812 366.11328125 540.90625 601.724609375 c 5
 541.39453125 605.2734375 l 5
 444.717773438 454.013671875 332.569335938 503.654296875 341.997070312 534.557617188 c 5
 444.69921875 475.8046875 544.706054688 634.868164062 542.209960938 683.655273438 c 5
 509.1171875 629.986328125 395.481445312 547.748046875 352.28125 554.948242188 c 4
 309.08203125 562.1484375 319.600585938 601.694335938 319.600585938 601.694335938 c 5
 319.600585938 601.694335938 329.481445312 566.348632812 379.881835938 588.548828125 c 4
 444.483398438 617.00390625 557.181640625 731.348632812 557.181640625 731.348632812 c 6
EndSplineSet
EndChar
StartChar: k
Encoding: 107 107 12
Width: 1000
Flags: H
LayerCount: 2
Fore
SplineSet
331.815429688 713.198242188 m 5
 369.114257812 542.1953125 401.712890625 402.774414062 497.032226562 422.59765625 c 4
 550.301757812 433.676757812 593.551757812 471.064453125 608.321289062 544.981445312 c 4
 619.397460938 600.411132812 610.556640625 635.615234375 602.889648438 663.430664062 c 4
 598.182617188 680.509765625 611.038085938 695.064453125 621.028320312 704.77734375 c 5
 653.897460938 712.5859375 663.392578125 468.6015625 666.96484375 420.291015625 c 4
 680.3203125 258.217773438 696.146484375 167.036132812 634.065429688 84.6640625 c 4
 613.458984375 57.32421875 586.11328125 39.009765625 559.553710938 25.0439453125 c 4
 532.993164062 11.076171875 504.578125 3.6640625 473.905273438 4.75390625 c 4
 385.299804688 7.9013671875 329.935546875 70.7705078125 329.935546875 70.7705078125 c 5
 329.935546875 70.7705078125 370.181640625 66.1201171875 407.987304688 65.7314453125 c 4
 526.9140625 64.5068359375 632.552734375 70.71875 641.961914062 165.7109375 c 4
 649.375 240.546875 656.157226562 374.118164062 613.899414062 429.698242188 c 4
 583.473632812 469.717773438 502.451171875 379.998046875 436.711914062 394.859375 c 4
 404.115234375 402.228515625 366.29296875 415.372070312 343.603515625 488.170898438 c 4
 307.153320312 605.115234375 331.815429688 713.198242188 331.815429688 713.198242188 c 5
EndSplineSet
EndChar
StartChar: l
Encoding: 108 108 13
Width: 1000
Flags: H
LayerCount: 2
Fore
SplineSet
377.795898438 546.124023438 m 5
 391.084960938 640.28125 483.6796875 756.723632812 526.650390625 776.6171875 c 4
 580.79296875 801.682617188 642.811523438 771.578125 622.905273438 674.978515625 c 4
 603.903320312 582.755859375 529.881835938 456.594726562 529.881835938 456.594726562 c 5
 431.484375 289.6171875 296.247070312 -90.041015625 577.635742188 75.7822265625 c 4
 582.767578125 78.8076171875 597.279296875 76.30859375 595.088867188 71.9423828125 c 4
 586.0234375 53.873046875 581.186523438 42.5126953125 567.96484375 34.701171875 c 4
 522.888671875 8.0703125 463.817382812 -11.1953125 412.141601562 14.9755859375 c 4
 370.025390625 36.3046875 342.725585938 98.5537109375 364.502929688 242.28515625 c 4
 389.999023438 410.555664062 565.581054688 577.9453125 595.588867188 697.5703125 c 4
 631.545898438 840.903320312 470.940429688 731.311523438 377.795898438 546.124023438 c 5
EndSplineSet
EndChar
StartChar: m
Encoding: 109 109 14
Width: 1000
Flags: H
LayerCount: 2
Fore
SplineSet
503.33203125 703.71875 m 1
 537.854492188 710.10546875 651.737304688 655.25390625 559.334960938 462.70703125 c 1
 584.155273438 472.888671875 628.703125 475.888671875 663.704101562 433.25 c 0
 698.706054688 390.611328125 701.161132812 328.211914062 701.250976562 273.515625 c 0
 701.50390625 121.354492188 591.857421875 -90.072265625 486.967773438 -77.6806640625 c 0
 466.421875 -75.25390625 452.15625 -26.296875 452.15625 -26.296875 c 1
 498.447265625 -22.65234375 526.446289062 -14.8330078125 542.314453125 -4.8427734375 c 0
 586.44140625 22.9375 613.935546875 50.9716796875 631.20703125 82.7802734375 c 0
 660.18359375 136.1484375 694.165039062 356.883789062 614.702148438 431.977539062 c 0
 546.821289062 496.125 544.626953125 350.174804688 422.641601562 272.998046875 c 0
 374.380859375 242.462890625 346.447265625 237.87890625 313.393554688 251.1484375 c 1
 392.139648438 309.223632812 502.560546875 382.083007812 532.606445312 475.676757812 c 0
 559.806640625 560.407226562 570.756835938 645.853515625 503.33203125 703.71875 c 1
EndSplineSet
EndChar
StartChar: n
Encoding: 110 110 15
Width: 1000
Flags: H
LayerCount: 2
Fore
SplineSet
329.782226562 708.401367188 m 0
 351.11328125 418.961914062 548.213867188 230.250976562 602.702148438 671.280273438 c 1
 620.03515625 717.846679688 631.876953125 702.408203125 631.876953125 702.408203125 c 1
 643.338867188 631.049804688 654.196289062 574.110351562 660.034179688 529.111328125 c 0
 672.00390625 436.849609375 676.896484375 230.897460938 618.705078125 260.456054688 c 1
 530.745117188 314.624023438 385.547851562 365.5078125 341.94921875 269.647460938 c 0
 259.556640625 88.4931640625 437.840820312 9.05859375 649.436523438 77.53125 c 1
 658.438476562 58.1416015625 647.779296875 30.4833984375 630.412109375 20.4560546875 c 0
 593.2421875 -1.0029296875 491.064453125 2.8896484375 442.783203125 8.9208984375 c 0
 245.819335938 33.525390625 267.16796875 217.33984375 323.643554688 296.447265625 c 0
 412.829101562 421.372070312 534.318359375 375.004882812 619.258789062 287.889648438 c 1
 630.073242188 306.958984375 623.533203125 401.606445312 605.59765625 444.684570312 c 1
 242.141601562 209.76953125 292.3984375 701.483398438 327.532226562 711.381835938 c 0
 328.392578125 711.625 329.71484375 709.328125 329.782226562 708.401367188 c 0
EndSplineSet
EndChar
StartChar: o
Encoding: 111 111 3
Width: 1000
Flags: H
LayerCount: 2
Fore
SplineSet
581.368164062 573.650390625 m 0
 631.77734375 575.365234375 646.396484375 523.796875 638.368164062 522.650390625 c 0
 594.716796875 530.60546875 540.1171875 553.943359375 505.341796875 544.951171875 c 0
 465.254882812 534.583007812 414.091796875 505.39453125 374.895507812 465.712890625 c 1
 472.13671875 461.376953125 443.8828125 373.682617188 417.073242188 315.270507812 c 0
 339.858398438 147.037109375 597.47265625 117.408203125 511.747070312 261.375976562 c 0
 491.732421875 294.987304688 475.365234375 274.048828125 467.185546875 274.092773438 c 1
 479.063476562 313.123046875 l 1
 479.063476562 313.123046875 533.725585938 319.291015625 552.88671875 247.779296875 c 0
 572.91796875 173.024414062 481.198242188 151.026367188 439.184570312 157.8359375 c 0
 385.321289062 166.56640625 365.630859375 222.313476562 395.060546875 322.451171875 c 0
 419.833007812 406.73828125 380.599609375 434.22265625 363.431640625 441.958984375 c 1
 344.76171875 395.943359375 337.705078125 333.22265625 349.16796875 251.450195312 c 0
 372.612304688 84.21484375 489.13671875 -60.7578125 595.427734375 88.390625 c 0
 629.065429688 135.591796875 698.93359375 103.1328125 701.15234375 100.584960938 c 0
 704.545898438 96.6865234375 698 66.48046875 675.568359375 43.849609375 c 0
 644.779296875 12.7890625 298.889648438 -92.2958984375 295.16796875 234.650390625 c 0
 291.3984375 565.829101562 538.788085938 572.200195312 581.368164062 573.650390625 c 0
EndSplineSet
EndChar
StartChar: p
Encoding: 112 112 16
Width: 1000
Flags: H
LayerCount: 2
Fore
SplineSet
348.45703125 593.254882812 m 5
 348.45703125 593.254882812 354.665039062 550.052734375 416.235351562 582.907226562 c 4
 477.805664062 615.760742188 573.5234375 704.236328125 590.338867188 727.259765625 c 4
 590.918945312 727.284179688 604.44921875 747.7578125 615.43359375 727.259765625 c 4
 636.59765625 687.760742188 679.948242188 188.447265625 585.423828125 300.409179688 c 4
 491.161132812 412.060546875 425.909179688 434.611328125 388.2265625 411.022460938 c 4
 335.217773438 377.841796875 337.65234375 238.61328125 388.655273438 143.419921875 c 4
 443.193359375 31.0234375 541.977539062 47.82421875 637.267578125 86.20703125 c 4
 638.044921875 88.6201171875 663.752929688 54.791015625 623.711914062 7.5634765625 c 5
 251.145507812 -37.7939453125 272.322265625 366.077148438 369.231445312 423.478515625 c 4
 419.765625 453.409179688 497.993164062 428.741210938 581.28515625 387.33203125 c 5
 594.9921875 458.588867188 599.140625 603.1796875 577.159179688 666.200195312 c 5
 577.159179688 666.200195312 495.208007812 566.688476562 410.696289062 539.249023438 c 4
 326.184570312 511.810546875 348.45703125 593.254882812 348.45703125 593.254882812 c 5
EndSplineSet
EndChar
StartChar: q
Encoding: 113 113 17
Width: 1000
Flags: H
LayerCount: 2
Fore
SplineSet
527.840820312 580.099609375 m 0
 538.146484375 600.673828125 563.510742188 612.643554688 563.510742188 612.643554688 c 1
 510.249023438 180.881835938 325.395507812 131.5 294.771484375 136.182617188 c 1
 294.771484375 136.182617188 280.311523438 174.7421875 282.107421875 203.767578125 c 1
 288.68359375 207.606445312 313.616210938 187.186523438 319.567382812 191.8125 c 0
 487.674804688 322.505859375 508.358398438 541.20703125 527.840820312 580.099609375 c 0
607.120117188 575.88671875 m 0
 607.5390625 597.046875 618.853515625 591.1875 649.97265625 619.907226562 c 1
 653.498046875 178.052734375 348.892578125 -7.087890625 303.552734375 24.5146484375 c 1
 303.552734375 24.5146484375 289.092773438 63.07421875 290.887695312 92.099609375 c 1
 297.463867188 95.9384765625 321.944335938 76.2451171875 328.346679688 80.14453125 c 0
 589.859375 239.399414062 605.7265625 505.5703125 607.120117188 575.88671875 c 0
EndSplineSet
EndChar
StartChar: r
Encoding: 114 114 18
Width: 1000
Flags: H
LayerCount: 2
Fore
SplineSet
484.749023438 627.12109375 m 1
 484.749023438 627.12109375 647.728515625 456.381835938 564.427734375 614.186523438 c 1
 564.427734375 614.186523438 429.387695312 812.349609375 384.891601562 755.953125 c 1
 384.891601562 755.953125 346.522460938 705.616210938 502.375976562 493.420898438 c 0
 658.23046875 281.2265625 638.473632812 87.32421875 601.157226562 41.95703125 c 0
 563.83984375 -3.408203125 486.279296875 -14.3837890625 405.791015625 41.95703125 c 1
 405.791015625 41.95703125 392.803710938 70.2509765625 386.766601562 82.5068359375 c 1
 443.734375 79.76953125 501.08203125 23.3916015625 550.400390625 32.7216796875 c 1
 583.509765625 45.34375 605.913085938 136.713867188 548.473632812 272.810546875 c 0
 505.389648438 376.6484375 263.124023438 720.72265625 382.397460938 779.602539062 c 0
 469.340820312 822.5234375 544.06640625 751.466796875 576 679.461914062 c 0
 627.432617188 563.493164062 594.55078125 427.18359375 484.749023438 627.12109375 c 1
EndSplineSet
EndChar
StartChar: s
Encoding: 115 115 19
Width: 1000
Flags: H
LayerCount: 2
Fore
SplineSet
585.001953125 720.758789062 m 5
 652.264648438 664.189453125 606.640625 495.833007812 544.033203125 394.376953125 c 5
 544.13671875 394.46484375 544.239257812 394.552734375 544.342773438 394.639648438 c 4
 605.499023438 420.102539062 641.364257812 395.868164062 638.961914062 261.610351562 c 4
 633.622070312 112.493164062 523.979492188 11.27734375 377.953125 3.6572265625 c 4
 362.515625 3.6572265625 348.067382812 41.0517578125 350.012695312 51.62109375 c 4
 354.204101562 74.3876953125 415.841796875 24.427734375 476.170898438 56.623046875 c 4
 578.493164062 115.325195312 621.951171875 342.703125 598.682617188 374.731445312 c 4
 582.819335938 396.56640625 548.979492188 391.284179688 533.760742188 378.561523438 c 5
 505.973632812 338.125 451.081054688 287.06640625 415.801757812 313.358398438 c 4
 406.104492188 320.584960938 401.702148438 341.258789062 430.202148438 346.658203125 c 4
 458.702148438 352.05859375 598.353515625 371.918945312 566.958007812 660.418945312 c 5
 429.918945312 488.8359375 323.162109375 519.637695312 348.602539062 595.958007812 c 5
 348.602539062 595.958007812 350.40234375 544.358398438 424.202148438 586.958007812 c 4
 498.001953125 629.55859375 585.001953125 720.758789062 585.001953125 720.758789062 c 5
EndSplineSet
EndChar
StartChar: t
Encoding: 116 116 20
Width: 1000
Flags: H
LayerCount: 2
Fore
SplineSet
591.947265625 726.702148438 m 5
 588.524414062 696.104492188 577.565429688 665.4140625 565.885742188 636.033203125 c 4
 553.885742188 605.561523438 539.676757812 575.669921875 518.409179688 550.41796875 c 5
 565.611328125 574.137695312 576.525390625 521.838867188 570.247070312 470.721679688 c 4
 564.467773438 423.651367188 542.741210938 376.439453125 526.817382812 329.778320312 c 4
 509.086914062 281.329101562 487.92578125 227.548828125 478.350585938 177.858398438 c 4
 474.805664062 138.478515625 481.0078125 92.3388671875 508.885742188 58.2109375 c 4
 546.749023438 15.7763671875 560.44140625 18.7705078125 603.670898438 40.5625 c 5
 582.12109375 18.1376953125 557.776367188 5.1220703125 549.637695312 4.8623046875 c 4
 472.5390625 2.4033203125 400.495117188 77.8046875 427.26953125 197.331054688 c 4
 446.803710938 284.534179688 551.470703125 405.36328125 556.083007812 507.1640625 c 4
 556.732421875 527.012695312 546.776367188 551.810546875 512.372070312 539.655273438 c 5
 483.55078125 501.146484375 456.47265625 461.376953125 417.106445312 428.5703125 c 4
 404.340820312 417.557617188 392.373046875 405.038085938 374.518554688 398.932617188 c 4
 359.05078125 393.643554688 341.1953125 417 344.713867188 425.817382812 c 4
 356.895507812 456.334960938 366.115234375 435.375 396.837890625 463.328125 c 4
 427.559570312 491.282226562 481.27734375 559.421875 511.155273438 604.491210938 c 4
 541.034179688 649.559570312 567.40234375 676.646484375 591.947265625 726.702148438 c 5
EndSplineSet
EndChar
StartChar: u
Encoding: 117 117 4
Width: 1000
Flags: H
LayerCount: 2
Fore
SplineSet
581.368164062 573.650390625 m 0
 631.77734375 575.365234375 646.396484375 523.796875 638.368164062 522.650390625 c 0
 594.716796875 530.60546875 553.204101562 545.215820312 507.451171875 538.102539062 c 0
 428.485351562 525.82421875 341.408203125 470.96484375 343.720703125 316.702148438 c 1
 360.69140625 342.216796875 399.390625 368.666992188 476.90234375 362.743164062 c 0
 551.194335938 357.065429688 537.607421875 244.44921875 501.87890625 215.247070312 c 0
 483.833007812 200.498046875 461.153320312 191.604492188 419.552734375 217.533203125 c 0
 417.09375 220.102539062 413.727539062 219.435546875 427.552734375 225.103515625 c 0
 441.35546875 230.762695312 454.951171875 233.46484375 451.711914062 224.227539062 c 0
 451.083984375 222.434570312 450.33984375 216.919921875 455.194335938 216.814453125 c 0
 476.412109375 217.719726562 512.516601562 246.366210938 517.166015625 277.259765625 c 0
 519.884765625 295.32421875 511.466796875 314.826171875 481.981445312 331.849609375 c 0
 429.423828125 362.193359375 366.107421875 348.176757812 346.423828125 273.966796875 c 0
 347.177734375 266.626953125 348.091796875 259.122070312 349.16796875 251.450195312 c 0
 372.612304688 84.21484375 489.13671875 -60.7578125 595.427734375 88.390625 c 0
 629.065429688 135.591796875 698.93359375 103.1328125 701.15234375 100.584960938 c 0
 704.545898438 96.6865234375 698 66.48046875 675.568359375 43.849609375 c 0
 644.779296875 12.7890625 298.889648438 -92.2958984375 295.16796875 234.650390625 c 0
 291.3984375 565.829101562 538.788085938 572.200195312 581.368164062 573.650390625 c 0
EndSplineSet
EndChar
StartChar: v
Encoding: 118 118 21
Width: 1000
Flags: H
LayerCount: 2
Fore
SplineSet
509.522460938 249.459960938 m 4
 504.975585938 230.54296875 469.552734375 213.184570312 466.478515625 210.040039062 c 4
 389.985351562 131.836914062 394.4453125 -5.861328125 487.00390625 48.4267578125 c 4
 579.450195312 102.6484375 597.3515625 71.1201171875 597.849609375 73.6123046875 c 5
 579.224609375 39.982421875 l 5
 401.240234375 -57.2880859375 367.091796875 75.1650390625 367.091796875 75.1650390625 c 5
 343.96875 190.779296875 415.209960938 250.043945312 415.209960938 250.043945312 c 5
 404.443359375 268.692382812 382.892578125 305.46875 396.4609375 353.618164062 c 4
 429.9296875 440.298828125 515.658203125 548.107421875 515.325195312 548.063476562 c 5
 676.204101562 801.818359375 554.090820312 752.182617188 559.045898438 758.126953125 c 5
 460.740234375 705.870117188 380.212890625 548.983398438 380.212890625 548.983398438 c 5
 380.212890625 548.983398438 397.774414062 670.08203125 507.530273438 764.471679688 c 5
 570.641601562 808.627929688 712.013671875 773.325195312 566.2890625 518.572265625 c 4
 524.4453125 445.421875 485.575195312 411.478515625 479.932617188 328.651367188 c 4
 475.5859375 264.849609375 516.107421875 276.859375 509.522460938 249.459960938 c 4
EndSplineSet
EndChar
StartChar: w
Encoding: 119 119 22
Width: 1000
Flags: H
LayerCount: 2
Fore
SplineSet
525.026367188 697.556640625 m 5
 525.026367188 697.556640625 l 5
 483.657226562 709.236328125 425.961914062 616.205078125 418.736328125 604.232421875 c 4
 376.255859375 533.474609375 353.076171875 472.341796875 342.951171875 384.283203125 c 4
 334.0234375 295.032226562 334.499023438 179.163085938 376.206054688 96.2705078125 c 5
 310.63671875 327.725585938 619.823242188 604.572265625 702.125 345.69921875 c 4
 709.603515625 322.176757812 711.102539062 295.852539062 705.817382812 271.7421875 c 4
 688.1171875 191.008789062 639.625976562 174.65625 631.711914062 184.405273438 c 4
 620.451171875 198.275390625 622.043945312 228.428710938 624.526367188 238.231445312 c 5
 632.084960938 235.991210938 633.8359375 234.466796875 643.653320312 228.51171875 c 4
 650.740234375 224.21484375 652.0390625 282.778320312 643.506835938 307.787109375 c 4
 632.833007812 339.0703125 602.6328125 400.955078125 522.359375 381.787109375 c 4
 385.274414062 349.0546875 362.95703125 79.0302734375 422.826171875 36.9072265625 c 4
 431.981445312 30.4658203125 439.900390625 27.0185546875 456.060546875 32.0634765625 c 5
 456.060546875 32.0634765625 433.686523438 3.8564453125 419.229492188 3.7880859375 c 4
 384.372070312 3.6201171875 350.833007812 36.6044921875 330.000976562 71.107421875 c 4
 269.751953125 170.887695312 288.846679688 317.05078125 310.860351562 410.583984375 c 4
 330.237304688 492.909179688 369.196289062 574.185546875 400.819335938 618.303710938 c 4
 436.075195312 667.48828125 482.145507812 706.044921875 503.995117188 706.71875 c 4
 511.426757812 706.94921875 520.526367188 706.736328125 525.026367188 697.556640625 c 5
EndSplineSet
EndChar
StartChar: x
Encoding: 120 120 23
Width: 1000
Flags: H
LayerCount: 2
Fore
SplineSet
357.6328125 486.206054688 m 5
 342.163085938 618.744140625 589.208007812 770.583984375 629.462890625 684.999023438 c 4
 657.227539062 625.969726562 594.638671875 514.395507812 530.791015625 424.036132812 c 5
 594.797851562 420.303710938 550.634765625 321.169921875 522.212890625 268.40625 c 6
 522.212890625 268.40625 489.452148438 203.067382812 476.583007812 172.971679688 c 4
 436.967773438 80.33203125 471.412109375 12.255859375 509.499023438 25.416015625 c 5
 527.83203125 37.1669921875 523.973632812 71.0107421875 523.973632812 71.0107421875 c 5
 523.973632812 71.0107421875 522.583007812 83.2587890625 524.397460938 89.6787109375 c 4
 525.756835938 94.4912109375 529.513671875 102.346679688 532.361328125 102.391601562 c 4
 533.272460938 102.405273438 535.012695312 101.129882812 535.217773438 97.7392578125 c 6
 535.217773438 97.7392578125 533.30859375 -38.44921875 576.159179688 -22.7509765625 c 4
 576.159179688 -22.7509765625 534.669921875 -80.4287109375 525.979492188 38.201171875 c 5
 522.673828125 28.84375 513.145507812 7.125 489.840820312 3.7060546875 c 4
 401.577148438 0.935546875 416.817382812 86.5048828125 428.61328125 126.244140625 c 4
 445.827148438 184.233398438 475.026367188 242.290039062 500.762695312 296.522460938 c 4
 508.672851562 318.09765625 586.552734375 439.799804688 512.071289062 400.071289062 c 5
 476.618164062 350.473632812 426.346679688 307.739257812 402.336914062 318.834960938 c 4
 399.416015625 320.184570312 393.774414062 322.224609375 387.234375 329.749023438 c 5
 462.366210938 352.086914062 588.338867188 583.592773438 593.971679688 607.779296875 c 4
 638.661132812 799.658203125 484.723632812 623.69921875 439.921875 578.079101562 c 4
 368.079101562 504.923828125 363.872070312 467.991210938 363.872070312 467.991210938 c 5
 361.141601562 470.366210938 357.6328125 486.206054688 357.6328125 486.206054688 c 5
EndSplineSet
EndChar
StartChar: y
Encoding: 121 121 24
Width: 1000
Flags: H
LayerCount: 2
Fore
SplineSet
476.534179688 565.55078125 m 4
 476.534179688 565.55078125 488.448242188 546.895507812 492.318359375 530.623046875 c 4
 500.627929688 495.69921875 468.814453125 347.412109375 393.305664062 364.79296875 c 4
 363.483398438 371.658203125 361.141601562 417.58203125 362.034179688 435.837890625 c 4
 362.926757812 454.095703125 380.389648438 519.439453125 398.584960938 556.919921875 c 4
 440.666015625 643.591796875 499.827148438 642.9375 516.817382812 640.743164062 c 4
 629.0625 626.241210938 586.461914062 471.336914062 564.10546875 408.034179688 c 4
 557.833007812 387.79296875 543.708007812 348.049804688 543.708007812 348.049804688 c 5
 559.426757812 361.412109375 589.740234375 377.231445312 611.68359375 370.61328125 c 4
 647.034179688 359.951171875 641.575195312 317.908203125 641.573242188 276.169921875 c 4
 641.572265625 255.625976562 648.737304688 209.92578125 656.41015625 177.594726562 c 4
 665.176757812 140.659179688 673.307617188 102.484375 691.877929688 69.375 c 4
 703.485351562 48.681640625 718.594726562 20.861328125 738.041992188 15.193359375 c 6
 755.911132812 14.1962890625 l 5
 743.40234375 3.3271484375 719.279296875 4.333984375 719.279296875 4.333984375 c 5
 696.346679688 6.71484375 682.999023438 19.73828125 669.83984375 33.6669921875 c 4
 645.040039062 59.9169921875 630.280273438 95.2255859375 619.932617188 129.82421875 c 4
 607.118164062 172.672851562 603.931640625 219.231445312 606.2109375 263.291015625 c 4
 607.776367188 293.551757812 619.41796875 348.513671875 596.764648438 353.618164062 c 4
 557.205078125 362.533203125 517.071289062 281.06640625 503.419921875 253.180664062 c 4
 484.651367188 214.838867188 468.96875 174.5234375 447.80859375 137.7421875 c 4
 432.235351562 110.677734375 416.606445312 82.859375 395.577148438 60.7841796875 c 4
 378.26953125 42.6181640625 358.254882812 26.6123046875 336.176757812 16.6484375 c 4
 325.057617188 11.6298828125 297.338867188 -3.9638671875 300.760742188 9.3896484375 c 4
 310.681640625 48.099609375 313.962890625 77.0615234375 330.08203125 105.942382812 c 4
 346.504882812 135.3671875 380.14453125 118.598632812 414.416992188 170.189453125 c 4
 443.37890625 213.787109375 463.452148438 260.806640625 487.481445312 306.374023438 c 4
 499.807617188 329.751953125 512.509765625 352.94921875 523.958984375 376.768554688 c 4
 542.477539062 415.288085938 563.421875 453.389648438 576.017578125 493.942382812 c 4
 607.39453125 594.958007812 482.440429688 650.771484375 424.661132812 580.580078125 c 4
 392.794921875 541.868164062 392.733398438 476.748046875 393.893554688 459.764648438 c 4
 395.147460938 441.395507812 398.225585938 412.791992188 414.579101562 409.478515625 c 4
 437.399414062 404.85546875 495.283203125 458.7265625 476.534179688 565.55078125 c 4
EndSplineSet
EndChar
StartChar: z
Encoding: 122 122 25
Width: 1000
Flags: H
LayerCount: 2
Fore
SplineSet
585.001953125 723.7109375 m 5
 652.265625 667.141601562 606.640625 498.786132812 544.033203125 397.329101562 c 5
 544.13671875 397.416015625 544.239257812 397.504882812 544.342773438 397.591796875 c 4
 607.927734375 436.850585938 642.1484375 401.893554688 638.961914062 264.563476562 c 4
 635.865234375 178.079101562 592.530273438 48.3369140625 552.556640625 16.7861328125 c 4
 495.538085938 -24.8564453125 476.501953125 42.818359375 462.60546875 90.630859375 c 5
 453.224609375 -22.1728515625 420.029296875 -40.759765625 388.743164062 -40.818359375 c 4
 374.970703125 -40.84375 364.27734375 -37.2265625 361.244140625 -36.3740234375 c 4
 356.024414062 -34.908203125 351.46875 -9.845703125 358.466796875 -18.765625 c 4
 408.107421875 -82.0380859375 451.010742188 162.731445312 455.510742188 166.993164062 c 4
 467.901367188 178.725585938 469.063476562 40.474609375 509.666992188 41.44140625 c 4
 552.0234375 42.44921875 603.64453125 214.350585938 603.287109375 327.775390625 c 4
 602.940429688 437.913085938 537.177734375 384.37109375 533.760742188 381.513671875 c 4
 505.973632812 341.077148438 451.081054688 290.018554688 415.801757812 316.310546875 c 4
 406.104492188 323.538085938 401.702148438 344.2109375 430.202148438 349.610351562 c 4
 458.702148438 355.010742188 598.353515625 374.872070312 566.958007812 663.37109375 c 5
 429.918945312 491.788085938 323.162109375 522.58984375 348.602539062 598.911132812 c 5
 348.602539062 598.911132812 350.40234375 547.310546875 424.202148438 589.911132812 c 4
 498.001953125 632.510742188 585.001953125 723.7109375 585.001953125 723.7109375 c 5
EndSplineSet
EndChar
StartChar: wis_12_11
Encoding: 280 -1 78
Width: 1000
Flags: HW
LayerCount: 2
Fore
SplineSet
247.061523438 442.435546875 m 5
 307.051757812 428.564453125 377.80859375 225.231445312 246.681640625 149.342773438 c 4
 232.645507812 141.215820312 200.857421875 135.908203125 212.958984375 139.827148438 c 4
 250.977539062 156.1171875 287.559570312 296.741210938 272 370 c 4
 262.671875 413.924804688 247.061523438 442.435546875 247.061523438 442.435546875 c 5
309.200195312 574.1328125 m 2
 309.200195312 574.1328125 l 1
 314.833007812 574.002929688 328.215820312 572.892578125 345.165039062 566.080078125 c 0
 367.766601562 556.995117188 389.258789062 531.95703125 389.258789062 531.95703125 c 1
 465.481445312 559.875976562 512.014648438 564.528320312 562.977539062 561.647460938 c 0
 767.5078125 552.791992188 753.563476562 295.799804688 670.874023438 110.801757812 c 0
 648.241210938 67.3359375 599.4375 28.64453125 557.436523438 12.498046875 c 1
 664.356445312 118.552734375 760.096679688 501.568359375 533.8046875 521.623046875 c 0
 505.131835938 527.575195312 395.455078125 521.778320312 395.455078125 521.778320312 c 1
 444.592773438 431.5 449.840820312 151.837890625 348.711914062 24.888671875 c 0
 341.620117188 17.1337890625 312.151367188 -5.6884765625 287.11328125 8.4921875 c 0
 262.075195312 22.6728515625 254.096679688 40.3974609375 254.096679688 40.3974609375 c 1
 254.096679688 40.3974609375 258.970703125 34.4150390625 269.384765625 27.546875 c 0
 279.799804688 20.677734375 283.124023438 32.64453125 283.124023438 32.64453125 c 1
 346.916015625 132.212890625 364.260742188 227.6875 372.879882812 345.868164062 c 1
 376.506835938 472.09765625 294.140625 568.146484375 306.305664062 574.109375 c 1
 306.305664062 574.111328125 l 1
 306.305664062 574.111328125 307.323242188 574.17578125 309.200195312 574.1328125 c 2
506.7109375 488.897460938 m 1
 562.911132812 463.935546875 583.981445312 413.252929688 581.014648438 350.939453125 c 0
 580.486328125 308.109375 553.0234375 174.8359375 506.7109375 146.115234375 c 0
 478.127929688 128.388671875 457.077148438 141.240234375 457.077148438 141.240234375 c 1
 466.604492188 138.802734375 560.649414062 271.37890625 516.23828125 465.408203125 c 0
 513.930664062 476.416015625 506.7109375 488.897460938 506.7109375 488.897460938 c 1
EndSplineSet
EndChar
StartChar: wis_12_12
Encoding: 281 -1 79
Width: 1000
Flags: HW
LayerCount: 2
Fore
SplineSet
247.061523438 442.435546875 m 1
 307.051757812 428.564453125 377.80859375 225.231445312 246.681640625 149.342773438 c 0
 232.645507812 141.215820312 200.857421875 135.908203125 212.958984375 139.827148438 c 0
 250.977539062 156.1171875 287.559570312 296.741210938 272 370 c 0
 262.671875 413.924804688 247.061523438 442.435546875 247.061523438 442.435546875 c 1
309.200195312 574.1328125 m 2
 309.200195312 574.1328125 l 1
 314.833007812 574.002929688 328.215820312 572.892578125 345.165039062 566.080078125 c 0
 367.766601562 556.995117188 389.258789062 531.95703125 389.258789062 531.95703125 c 1
 465.481445312 559.875976562 512.014648438 564.528320312 562.977539062 561.647460938 c 0
 767.5078125 552.791992188 753.563476562 295.799804688 670.874023438 110.801757812 c 0
 648.241210938 67.3359375 599.4375 28.64453125 557.436523438 12.498046875 c 1
 664.356445312 118.552734375 760.096679688 501.568359375 533.8046875 521.623046875 c 0
 505.131835938 527.575195312 395.455078125 521.778320312 395.455078125 521.778320312 c 1
 444.592773438 431.5 449.840820312 151.837890625 348.711914062 24.888671875 c 0
 341.620117188 17.1337890625 312.151367188 -5.6884765625 287.11328125 8.4921875 c 0
 262.075195312 22.6728515625 254.096679688 40.3974609375 254.096679688 40.3974609375 c 1
 254.096679688 40.3974609375 258.970703125 34.4150390625 269.384765625 27.546875 c 0
 279.799804688 20.677734375 283.124023438 32.64453125 283.124023438 32.64453125 c 1
 346.916015625 132.212890625 364.260742188 227.6875 372.879882812 345.868164062 c 1
 376.506835938 472.09765625 294.140625 568.146484375 306.305664062 574.109375 c 1
 306.305664062 574.111328125 l 1
 306.305664062 574.111328125 307.323242188 574.17578125 309.200195312 574.1328125 c 2
542.649414062 498.0546875 m 1
 559.159179688 468.474609375 561.374023438 439.225585938 558.936523438 407.76171875 c 0
 556.499023438 376.297851562 541.430664062 347.26953125 541.430664062 347.26953125 c 2
 538.993164062 339.513671875 518.830078125 306.943359375 518.830078125 306.943359375 c 1
 595.471679688 291.267578125 577.858398438 147.927734375 515.506835938 114.282226562 c 0
 493.127929688 102.206054688 483.37890625 106.63671875 483.37890625 106.63671875 c 1
 497.162109375 107.20703125 489.966796875 141.42578125 505.313476562 162.25390625 c 0
 516.479492188 177.407226562 540.051757812 238.588867188 511.517578125 262.407226562 c 1
 492.038085938 271.17578125 480.977539062 263.018554688 479.724609375 260.825195312 c 0
 478.471679688 258.630859375 461.864257812 249.229492188 451.836914062 263.64453125 c 0
 441.80859375 278.05859375 451.836914062 290.592773438 451.836914062 290.592773438 c 1
 514.795898438 340.231445312 526.049804688 426.287109375 542.649414062 498.0546875 c 1
EndSplineSet
EndChar
StartChar: wis_12_8
Encoding: 277 -1 75
Width: 1000
Flags: H
LayerCount: 2
Fore
SplineSet
247.061523438 442.435546875 m 5
 307.051757812 428.564453125 377.80859375 225.231445312 246.681640625 149.342773438 c 4
 232.645507812 141.215820312 200.857421875 135.908203125 212.958984375 139.827148438 c 4
 250.977539062 156.1171875 287.559570312 296.741210938 272 370 c 4
 262.671875 413.924804688 247.061523438 442.435546875 247.061523438 442.435546875 c 5
306.305664062 574.111328125 m 1
 306.305664062 574.11328125 l 1
 306.305664062 574.11328125 322.564453125 575.166015625 345.165039062 566.080078125 c 0
 367.765625 556.99609375 389.259765625 531.958007812 389.259765625 531.958007812 c 1
 465.482421875 559.876953125 512.013671875 564.530273438 562.975585938 561.649414062 c 0
 767.5078125 552.793945312 753.564453125 295.802734375 670.875 110.803710938 c 0
 648.241210938 67.3388671875 599.438476562 28.6455078125 557.4375 12.498046875 c 1
 664.357421875 118.5546875 760.096679688 501.571289062 533.8046875 521.626953125 c 0
 505.131835938 527.578125 395.456054688 521.78125 395.456054688 521.78125 c 1
 444.59375 431.50390625 449.83984375 151.838867188 348.709960938 24.8896484375 c 0
 341.620117188 17.1357421875 312.150390625 -5.6875 287.111328125 8.4931640625 c 0
 262.073242188 22.6748046875 254.096679688 40.400390625 254.096679688 40.400390625 c 1
 254.096679688 40.400390625 258.971679688 34.41796875 269.385742188 27.548828125 c 0
 279.798828125 20.6806640625 283.124023438 32.6455078125 283.124023438 32.6455078125 c 1
 346.916015625 132.213867188 364.260742188 227.689453125 372.879882812 345.87109375 c 1
 376.506835938 472.100585938 294.140625 568.1484375 306.305664062 574.111328125 c 1
EndSplineSet
EndChar
StartChar: wis_ah
Encoding: 256 -1 54
Width: 1000
Flags: H
LayerCount: 2
Fore
SplineSet
415.618164062 574.650390625 m 4
 459.76953125 575.822265625 706.353515625 568.10546875 701.818359375 235.650390625 c 4
 697.357421875 -91.287109375 352.206054688 13.7890625 321.41796875 44.849609375 c 4
 298.986328125 67.48046875 292.440429688 97.6865234375 295.833984375 101.584960938 c 4
 298.05078125 104.1328125 367.919921875 136.591796875 401.55859375 89.390625 c 4
 507.849609375 -59.7578125 624.373046875 85.21484375 647.818359375 252.450195312 c 4
 672.51953125 428.643554688 585.797851562 505.616210938 531.563476562 537.954101562 c 5
 447.903320312 514.0546875 554.444335938 305.583007812 573.578125 312.291015625 c 4
 592.068359375 318.7734375 562.717773438 257.817382812 557.583984375 262.732421875 c 4
 415.146484375 479.173828125 493.055664062 531.76171875 517.782226562 542.30859375 c 5
 510.6015625 543.645507812 504.069335938 544.771484375 496.735351562 545.102539062 c 4
 450.479492188 547.18359375 402.26953125 531.60546875 358.618164062 523.650390625 c 4
 350.588867188 524.796875 365.197265625 573.311523438 415.618164062 574.650390625 c 4
EndSplineSet
EndChar
StartChar: wis_ai
Encoding: 266 -1 64
Width: 1000
Flags: H
LayerCount: 2
Fore
SplineSet
581.368164062 574.650390625 m 4
 631.798828125 573.705078125 646.396484375 524.796875 638.368164062 523.650390625 c 4
 603.254882812 530.049804688 565.190429688 541.381835938 527.567382812 544.486328125 c 5
 562.625 524.014648438 625.2109375 462.540039062 520.104492188 287.33203125 c 4
 514.970703125 282.416992188 485.620117188 343.373046875 504.111328125 336.890625 c 4
 522.591796875 330.411132812 583.290039062 512.296875 509.33984375 545.291992188 c 4
 506.302734375 545.30078125 503.2734375 545.23828125 500.250976562 545.102539062 c 4
 492.916015625 544.771484375 485.633789062 543.9453125 478.454101562 542.608398438 c 5
 503.180664062 532.061523438 581.83984375 479.173828125 439.40234375 262.732421875 c 4
 434.268554688 257.817382812 404.91796875 318.7734375 423.408203125 312.291015625 c 4
 442.541992188 305.583007812 547.58203125 515.254882812 463.922851562 539.154296875 c 5
 395.7265625 507.3203125 324.59375 428.43359375 349.16796875 252.450195312 c 4
 372.522460938 85.2021484375 489.13671875 -59.7578125 595.427734375 89.390625 c 4
 629.065429688 136.591796875 698.93359375 104.1328125 701.15234375 101.584960938 c 4
 704.545898438 97.6865234375 698 67.48046875 675.568359375 44.849609375 c 4
 644.779296875 13.7890625 299.9140625 -91.283203125 295.16796875 235.650390625 c 4
 290.350585938 567.52734375 535.321289062 575.512695312 581.368164062 574.650390625 c 4
EndSplineSet
EndChar
StartChar: wis_aih
Encoding: 257 -1 55
Width: 1000
Flags: H
LayerCount: 2
Fore
SplineSet
415.594726562 574.650390625 m 4
 461.641601562 575.512695312 706.61328125 567.52734375 701.794921875 235.650390625 c 4
 697.048828125 -91.283203125 352.18359375 13.7890625 321.39453125 44.849609375 c 4
 298.962890625 67.48046875 292.416992188 97.6865234375 295.810546875 101.584960938 c 4
 298.029296875 104.1328125 367.897460938 136.591796875 401.53515625 89.390625 c 4
 507.826171875 -59.7578125 624.440429688 85.2021484375 647.794921875 252.450195312 c 4
 672.370117188 428.43359375 601.236328125 507.3203125 533.040039062 539.154296875 c 5
 449.380859375 515.254882812 554.420898438 305.583007812 573.5546875 312.291015625 c 4
 592.044921875 318.7734375 562.694335938 257.817382812 557.560546875 262.732421875 c 4
 415.124023438 479.173828125 493.782226562 532.061523438 518.508789062 542.608398438 c 5
 511.329101562 543.9453125 504.046875 544.771484375 496.711914062 545.102539062 c 4
 493.689453125 545.23828125 490.66015625 545.30078125 487.623046875 545.291992188 c 4
 413.673828125 512.296875 474.37109375 330.411132812 492.8515625 336.890625 c 4
 511.342773438 343.373046875 481.9921875 282.416992188 476.858398438 287.33203125 c 4
 371.752929688 462.540039062 434.337890625 524.014648438 469.395507812 544.486328125 c 5
 431.772460938 541.381835938 393.708984375 530.049804688 358.594726562 523.650390625 c 4
 350.56640625 524.796875 365.166015625 573.705078125 415.594726562 574.650390625 c 4
EndSplineSet
EndChar
StartChar: wis_au
Encoding: 270 -1 68
Width: 1000
Flags: H
LayerCount: 2
Fore
SplineSet
581.368164062 574.650390625 m 4
 631.77734375 576.365234375 646.396484375 524.796875 638.368164062 523.650390625 c 4
 594.716796875 531.60546875 545.693359375 553.981445312 500.250976562 545.102539062 c 4
 424.58203125 530.31640625 342.208007812 472.087890625 343.700195312 318.801757812 c 5
 367.333984375 343.956054688 407.637695312 365.166015625 452.930664062 370.525390625 c 4
 646.123046875 393.387695312 567.858398438 189.19921875 515.1171875 196.88671875 c 5
 473.876953125 195.012695312 439.517578125 224.603515625 439.517578125 224.603515625 c 5
 439.517578125 224.603515625 433.779296875 230.03125 425.334960938 235.141601562 c 4
 421.900390625 237.373046875 419.28515625 237.04296875 433.109375 242.711914062 c 4
 446.913085938 248.37109375 462.448242188 250.142578125 457.268554688 241.834960938 c 4
 447.279296875 225.8125 554.12109375 179.33984375 555.258789062 264.813476562 c 5
 537.463867188 238.91796875 499.3984375 251.665039062 480.528320312 262.821289062 c 4
 472.763671875 267.412109375 463.142578125 271.206054688 453.071289062 277.30078125 c 4
 449.298828125 279.344726562 447.24609375 279.203125 461.0703125 284.87109375 c 4
 474.874023438 290.530273438 488.46875 293.232421875 485.229492188 283.994140625 c 4
 484.6015625 282.201171875 480.463867188 280.610351562 488.712890625 276.581054688 c 4
 511.1640625 262.16796875 549.005859375 252.853515625 556.198242188 283.349609375 c 4
 560.392578125 301.129882812 550.5 320.916992188 521.013671875 337.940429688 c 4
 467.556640625 368.8046875 372.203125 349.76171875 346.814453125 271.27734375 c 4
 347.487304688 265.1171875 348.271484375 258.842773438 349.16796875 252.450195312 c 4
 372.612304688 85.21484375 489.13671875 -59.7578125 595.427734375 89.390625 c 4
 629.065429688 136.591796875 698.93359375 104.1328125 701.15234375 101.584960938 c 4
 704.545898438 97.6865234375 698 67.48046875 675.568359375 44.849609375 c 4
 644.779296875 13.7890625 298.889648438 -91.2958984375 295.16796875 235.650390625 c 4
 291.3984375 566.829101562 538.788085938 573.200195312 581.368164062 574.650390625 c 4
EndSplineSet
EndChar
StartChar: wis_auh
Encoding: 265 -1 63
Width: 1000
Flags: H
LayerCount: 2
Fore
SplineSet
415.618164062 575.650390625 m 4
 458.197265625 574.200195312 705.587890625 567.829101562 701.818359375 236.650390625 c 4
 698.096679688 -90.2958984375 352.206054688 14.7890625 321.41796875 45.849609375 c 4
 298.986328125 68.48046875 292.440429688 98.6865234375 295.833984375 102.584960938 c 4
 298.05078125 105.1328125 367.919921875 137.591796875 401.55859375 90.390625 c 4
 507.849609375 -58.7578125 624.373046875 86.21484375 647.818359375 253.450195312 c 4
 648.713867188 259.842773438 649.498046875 266.1171875 650.171875 272.27734375 c 4
 624.783203125 350.76171875 529.4296875 369.8046875 475.97265625 338.940429688 c 4
 446.486328125 321.916992188 436.59375 302.129882812 440.788085938 284.349609375 c 4
 447.98046875 253.853515625 485.822265625 263.16796875 508.2734375 277.581054688 c 4
 516.522460938 281.610351562 512.384765625 283.201171875 511.756835938 284.994140625 c 4
 508.517578125 294.232421875 522.112304688 291.530273438 535.916015625 285.87109375 c 4
 549.740234375 280.203125 547.686523438 280.344726562 543.915039062 278.30078125 c 4
 533.842773438 272.206054688 524.22265625 268.412109375 516.458007812 263.821289062 c 4
 497.587890625 252.665039062 459.522460938 239.91796875 441.727539062 265.813476562 c 5
 442.865234375 180.33984375 549.70703125 226.8125 539.717773438 242.834960938 c 4
 534.538085938 251.142578125 550.073242188 249.37109375 563.876953125 243.711914062 c 4
 577.701171875 238.04296875 575.084960938 238.373046875 571.651367188 236.141601562 c 4
 563.205078125 231.03125 557.46875 225.603515625 557.46875 225.603515625 c 5
 557.46875 225.603515625 523.108398438 196.012695312 481.869140625 197.88671875 c 5
 429.127929688 190.19921875 350.86328125 394.387695312 544.055664062 371.525390625 c 4
 589.34765625 366.166015625 629.650390625 344.956054688 653.286132812 319.801757812 c 5
 654.77734375 473.087890625 572.404296875 531.31640625 496.735351562 546.102539062 c 4
 451.291015625 554.981445312 402.26953125 532.60546875 358.618164062 524.650390625 c 4
 350.588867188 525.796875 365.208007812 577.365234375 415.618164062 575.650390625 c 4
EndSplineSet
EndChar
StartChar: wis_ch
Encoding: 271 -1 69
Width: 1000
Flags: H
LayerCount: 2
Fore
SplineSet
557.568359375 731.674804688 m 2
 559.508789062 730.197265625 561.272460938 728.173828125 562.90234375 725.6953125 c 0
 612.4453125 654.221679688 575.110351562 537.32421875 594.125976562 473.857421875 c 1
 650.807617188 107.556640625 555.553710938 -66.7451171875 403.171875 -74.5498046875 c 0
 354.236328125 -77.056640625 345.856445312 -74.1943359375 336.196289062 -50.0478515625 c 0
 308.56640625 19.021484375 392.439453125 159.350585938 395.997070312 164.9609375 c 0
 399.899414062 171.111328125 416.575195312 151.874023438 416.53515625 150.947265625 c 0
 364.760742188 61.0009765625 385.111328125 -43.431640625 447.512695312 -33.83203125 c 1
 626.625976562 16.50390625 504.662109375 337.712890625 517.776367188 478.94140625 c 0
 521.329101562 517.205078125 541.78125 605.599609375 541.78125 605.599609375 c 1
 445.104492188 454.338867188 332.956054688 503.98046875 342.383789062 534.883789062 c 1
 445.0859375 476.129882812 545.092773438 635.194335938 542.596679688 683.981445312 c 1
 509.50390625 630.3125 395.868164062 548.07421875 352.66796875 555.274414062 c 0
 309.46875 562.474609375 319.987304688 602.020507812 319.987304688 602.020507812 c 1
 319.987304688 602.020507812 329.868164062 566.674804688 380.268554688 588.875 c 0
 444.870117188 617.330078125 557.568359375 731.674804688 557.568359375 731.674804688 c 2
EndSplineSet
EndChar
StartChar: wis_eh
Encoding: 258 -1 56
Width: 1000
Flags: H
LayerCount: 2
Fore
SplineSet
415.618164062 574.650390625 m 4
 458.197265625 573.200195312 705.587890625 566.829101562 701.818359375 235.650390625 c 4
 698.096679688 -91.2958984375 352.206054688 13.7890625 321.41796875 44.849609375 c 4
 298.986328125 67.48046875 292.440429688 97.6865234375 295.833984375 101.584960938 c 4
 298.05078125 104.1328125 367.919921875 136.591796875 401.55859375 89.390625 c 4
 489.709960938 -34.3056640625 584.900390625 44.3017578125 628.196289062 170.130859375 c 5
 597.545898438 155.970703125 516.006835938 145.975585938 428.46875 366.4921875 c 4
 427.387695312 373.516601562 494.155273438 362.594726562 478.23828125 351.166015625 c 4
 462.455078125 339.833007812 564.216796875 149.865234375 632.1875 182.336914062 c 5
 639.125 204.703125 644.524414062 228.333007812 647.818359375 252.450195312 c 4
 675.38671875 454.334960938 571.267578125 524.672851562 492.4921875 545.102539062 c 4
 447.672851562 556.7265625 402.26953125 531.60546875 358.618164062 523.650390625 c 4
 350.588867188 524.796875 365.208007812 576.365234375 415.618164062 574.650390625 c 4
EndSplineSet
EndChar
StartChar: wis_ei
Encoding: 267 -1 65
Width: 1000
Flags: H
LayerCount: 2
Fore
SplineSet
581.368164062 575.650390625 m 4
 631.77734375 577.365234375 646.396484375 525.796875 638.368164062 524.650390625 c 4
 594.716796875 532.60546875 553.796875 555.052734375 508.736328125 544.405273438 c 4
 433.529296875 526.633789062 331.8359375 464.056640625 345.478515625 286.01171875 c 5
 409.439453125 226.728515625 499.072265625 407.313476562 483.108398438 418.775390625 c 4
 467.192382812 430.204101562 533.959960938 441.125976562 532.877929688 434.1015625 c 4
 451.280273438 228.549804688 379.818359375 243.103515625 347.616210938 265.330078125 c 5
 348.08984375 261.415039062 348.606445312 257.455078125 349.16796875 253.450195312 c 4
 353.936523438 219.435546875 362.556640625 186.341796875 374.157226562 156.456054688 c 5
 439.026367188 103.877929688 517.0546875 269.658203125 500.748046875 281.366210938 c 4
 484.831054688 292.794921875 551.598632812 303.716796875 550.517578125 296.692382812 c 4
 468.88671875 100.994140625 408.588867188 113.703125 383.806640625 133.80859375 c 5
 431.6796875 31.216796875 516.383789062 -20.5234375 595.427734375 90.390625 c 4
 629.065429688 137.591796875 698.93359375 105.1328125 701.15234375 102.584960938 c 4
 704.545898438 98.6865234375 698 68.48046875 675.568359375 45.849609375 c 4
 644.779296875 14.7890625 298.889648438 -90.2958984375 295.16796875 236.650390625 c 4
 291.3984375 567.829101562 538.788085938 574.200195312 581.368164062 575.650390625 c 4
EndSplineSet
EndChar
StartChar: wis_eih
Encoding: 259 -1 57
Width: 1000
Flags: H
LayerCount: 2
Fore
SplineSet
415.618164062 574.650390625 m 4
 458.197265625 573.200195312 705.587890625 566.829101562 701.818359375 235.650390625 c 4
 698.096679688 -91.2958984375 352.206054688 13.7890625 321.41796875 44.849609375 c 4
 298.986328125 67.48046875 292.440429688 97.6865234375 295.833984375 101.584960938 c 4
 298.05078125 104.1328125 367.919921875 136.591796875 401.55859375 89.390625 c 4
 480.6015625 -21.5234375 565.305664062 30.216796875 613.1796875 132.80859375 c 5
 588.397460938 112.703125 528.099609375 99.994140625 446.46875 295.692382812 c 4
 445.387695312 302.716796875 512.155273438 291.794921875 496.23828125 280.366210938 c 4
 479.931640625 268.658203125 557.958984375 102.877929688 622.829101562 155.456054688 c 5
 634.4296875 185.341796875 643.048828125 218.435546875 647.818359375 252.450195312 c 4
 648.379882812 256.455078125 648.896484375 260.415039062 649.370117188 264.330078125 c 5
 617.16796875 242.103515625 545.706054688 227.549804688 464.108398438 433.1015625 c 4
 463.026367188 440.125976562 529.793945312 429.204101562 513.877929688 417.775390625 c 4
 497.913085938 406.313476562 587.546875 225.728515625 651.5078125 285.01171875 c 5
 665.150390625 463.056640625 563.456054688 525.633789062 488.25 543.405273438 c 4
 443.1875 554.052734375 402.26953125 531.60546875 358.618164062 523.650390625 c 4
 350.588867188 524.796875 365.208007812 576.365234375 415.618164062 574.650390625 c 4
EndSplineSet
EndChar
StartChar: wis_ih
Encoding: 260 -1 58
Width: 1000
Flags: H
LayerCount: 2
Fore
SplineSet
415.618164062 575.104492188 m 4
 458.197265625 573.655273438 705.587890625 567.284179688 701.818359375 236.104492188 c 4
 698.096679688 -90.8408203125 352.206054688 14.244140625 321.41796875 45.3046875 c 4
 298.986328125 67.9345703125 292.440429688 98.1416015625 295.833984375 102.040039062 c 4
 298.05078125 104.587890625 367.919921875 137.045898438 401.55859375 89.845703125 c 4
 434.57421875 43.5166015625 468.579101562 25.5654296875 500.473632812 27.8466796875 c 5
 458.521484375 68.7783203125 396.376953125 185.545898438 513.9765625 297.255859375 c 4
 519.109375 302.170898438 545.912109375 236.303710938 529.969726562 247.697265625 c 4
 508.129882812 263.302734375 451.774414062 83.763671875 514.31640625 30.1201171875 c 5
 579.0234375 46.7490234375 632.517578125 145.239257812 647.818359375 252.905273438 c 4
 676.249023438 452.959960938 585.578125 512.403320312 490.794921875 543.860351562 c 4
 451.4453125 556.919921875 402.26953125 532.060546875 358.618164062 524.104492188 c 4
 350.588867188 525.251953125 365.208007812 576.8203125 415.618164062 575.104492188 c 4
EndSplineSet
EndChar
StartChar: wis_ks
Encoding: 272 -1 70
Width: 1000
Flags: H
LayerCount: 2
Fore
SplineSet
332.481445312 703.317382812 m 5
 332.481445312 703.317382812 l 5
 369.779296875 532.315429688 402.377929688 392.892578125 497.697265625 412.715820312 c 4
 550.966796875 423.794921875 594.216796875 461.182617188 608.987304688 535.099609375 c 4
 620.064453125 590.529296875 611.220703125 625.734375 603.5546875 653.55078125 c 4
 598.84765625 670.62890625 611.703125 685.18359375 621.693359375 694.896484375 c 4
 643.16015625 715.767578125 657.787109375 568.942382812 661.180664062 504.178710938 c 4
 667.868164062 376.563476562 686.698242188 280.0625 685.05859375 206.27734375 c 4
 683.329101562 128.442382812 605.546875 -4.357421875 476.462890625 -6.548828125 c 4
 394.505859375 -7.94140625 320.778320312 57.7080078125 309.889648438 88.4033203125 c 4
 306.202148438 98.798828125 305.086914062 110.146484375 305.184570312 123.708007812 c 4
 306.000976562 237.107421875 433.645507812 406.041992188 457.693359375 125.779296875 c 5
 457.693359375 125.779296875 431.822265625 261.854492188 395.086914062 237.01953125 c 4
 302.798828125 174.626953125 385.751953125 -115.173828125 598.356445312 86.541015625 c 4
 618.239257812 105.40625 637.655273438 128.458007812 642.626953125 155.829101562 c 4
 655.302734375 225.595703125 657.345703125 357.564453125 614.565429688 419.817382812 c 4
 572.31640625 481.298828125 416.881835938 263.138671875 350.267578125 478.2890625 c 4
 314.0390625 595.302734375 332.481445312 703.317382812 332.481445312 703.317382812 c 5
EndSplineSet
EndChar
StartChar: wis_oh
Encoding: 262 -1 60
Width: 1000
Flags: H
LayerCount: 2
Fore
SplineSet
415.618164062 574.650390625 m 4
 458.197265625 573.200195312 705.587890625 566.829101562 701.818359375 235.650390625 c 4
 698.096679688 -91.2958984375 352.206054688 13.7890625 321.41796875 44.849609375 c 4
 298.986328125 67.48046875 292.440429688 97.6865234375 295.833984375 101.584960938 c 4
 298.05078125 104.1328125 367.919921875 136.591796875 401.55859375 89.390625 c 4
 507.849609375 -59.7578125 624.373046875 85.21484375 647.818359375 252.450195312 c 4
 659.28125 334.22265625 652.224609375 396.943359375 633.5546875 442.958984375 c 5
 616.384765625 435.22265625 577.153320312 407.73828125 601.92578125 323.451171875 c 4
 631.35546875 223.313476562 611.6640625 167.56640625 557.801757812 158.8359375 c 4
 515.788085938 152.026367188 424.068359375 174.024414062 444.099609375 248.779296875 c 4
 463.260742188 320.291015625 517.922851562 314.123046875 517.922851562 314.123046875 c 5
 529.80078125 275.092773438 l 5
 521.62109375 275.048828125 505.25390625 295.987304688 485.239257812 262.375976562 c 4
 399.513671875 118.408203125 657.127929688 148.037109375 579.913085938 316.270507812 c 4
 553.102539062 374.682617188 524.848632812 462.376953125 622.090820312 466.712890625 c 5
 582.89453125 506.39453125 531.731445312 535.583007812 491.643554688 545.951171875 c 4
 456.869140625 554.943359375 402.26953125 531.60546875 358.618164062 523.650390625 c 4
 350.588867188 524.796875 365.208007812 576.365234375 415.618164062 574.650390625 c 4
EndSplineSet
EndChar
StartChar: wis_oi
Encoding: 268 -1 66
Width: 1000
Flags: H
LayerCount: 2
Fore
SplineSet
581.368164062 576.009765625 m 4
 631.77734375 577.725585938 646.396484375 526.157226562 638.368164062 525.009765625 c 4
 594.716796875 532.965820312 548.874023438 558.817382812 504.493164062 545.61328125 c 4
 422.875 521.33203125 321.38671875 455.5703125 349.16796875 253.809570312 c 4
 363.610351562 148.922851562 415.154296875 52.8583984375 477.568359375 32.5107421875 c 5
 533.126953125 83.236328125 450.388671875 246.159179688 428.616210938 230.6015625 c 4
 412.673828125 219.208984375 439.4765625 285.075195312 444.610351562 280.16015625 c 4
 544.9140625 168.176757812 515.9609375 66.755859375 487.732421875 29.89453125 c 5
 509.118164062 25.8544921875 531.611328125 30.8037109375 554.236328125 47.2998046875 c 5
 594.67578125 116.6171875 484.712890625 328.620117188 463.416015625 313.401367188 c 4
 447.474609375 302.008789062 474.276367188 367.875 479.41015625 362.959960938 c 4
 604.415039062 244.213867188 598.7890625 127.002929688 575.279296875 66.033203125 c 5
 582.018554688 73.1533203125 588.744140625 81.3701171875 595.427734375 90.75 c 4
 629.065429688 137.951171875 698.93359375 105.4921875 701.15234375 102.944335938 c 4
 704.545898438 99.0458984375 698 68.83984375 675.568359375 46.2099609375 c 4
 644.779296875 15.1494140625 298.889648438 -89.9365234375 295.16796875 237.009765625 c 4
 291.3984375 568.188476562 538.788085938 574.559570312 581.368164062 576.009765625 c 4
EndSplineSet
EndChar
StartChar: wis_oih
Encoding: 261 -1 59
Width: 1000
Flags: H
LayerCount: 2
Fore
SplineSet
415.618164062 575.009765625 m 4
 458.197265625 573.559570312 705.587890625 567.188476562 701.818359375 236.009765625 c 4
 698.096679688 -90.9365234375 352.206054688 14.1494140625 321.41796875 45.2099609375 c 4
 298.986328125 67.83984375 292.440429688 98.0458984375 295.833984375 101.944335938 c 4
 298.05078125 104.4921875 367.919921875 136.951171875 401.55859375 89.75 c 4
 408.2421875 80.3701171875 414.966796875 72.1533203125 421.70703125 65.033203125 c 5
 398.197265625 126.002929688 392.5703125 243.213867188 517.576171875 361.959960938 c 4
 522.708984375 366.875 549.51171875 301.008789062 533.5703125 312.401367188 c 4
 512.2734375 327.620117188 402.310546875 115.6171875 442.75 46.2998046875 c 5
 465.375 29.8037109375 487.8671875 24.8544921875 509.25390625 28.89453125 c 5
 481.024414062 65.755859375 452.072265625 167.176757812 552.375976562 279.16015625 c 4
 557.508789062 284.075195312 584.3125 218.208984375 568.370117188 229.6015625 c 4
 546.59765625 245.159179688 463.859375 82.236328125 519.41796875 31.5107421875 c 5
 581.831054688 51.8583984375 633.375976562 147.922851562 647.818359375 252.809570312 c 4
 675.598632812 454.5703125 574.109375 520.33203125 492.4921875 544.61328125 c 4
 448.112304688 557.817382812 402.26953125 531.965820312 358.618164062 524.009765625 c 4
 350.588867188 525.157226562 365.208007812 576.725585938 415.618164062 575.009765625 c 4
EndSplineSet
EndChar
StartChar: wis_ou
Encoding: 269 -1 67
Width: 1000
Flags: H
LayerCount: 2
Fore
SplineSet
581.368164062 574.650390625 m 4
 631.77734375 576.365234375 646.396484375 524.796875 638.368164062 523.650390625 c 4
 609.23828125 528.958984375 565.51953125 542.415039062 539.186523438 543.944335938 c 4
 493.865234375 546.578125 437.7421875 528.018554688 375.841796875 468.358398438 c 5
 388.197265625 471.642578125 399.125 473.048828125 408.706054688 473.711914062 c 4
 491.27734375 479.432617188 478.458984375 392.28515625 453.673828125 325.870117188 c 4
 449.5078125 314.708007812 446.399414062 304.106445312 444.134765625 294.110351562 c 5
 462.879882812 302.69921875 473.2734375 306.501953125 489.544921875 315.396484375 c 4
 534.135742188 339.768554688 555.732421875 288.333007812 567.849609375 258.803710938 c 4
 587.897460938 184.013671875 518.12890625 162.56640625 472.184570312 164.236328125 c 4
 419.188476562 166.162109375 389.19921875 208.26953125 403.770507812 277.654296875 c 5
 385.204101562 283.390625 369.96875 298.149414062 365.78515625 329.390625 c 5
 365.78515625 329.390625 358.998046875 367.999023438 379.362304688 389.212890625 c 5
 379.362304688 389.212890625 383.633789062 397.005859375 402.416015625 393.693359375 c 5
 407.84375 386.685546875 408.211914062 376.908203125 408.211914062 376.908203125 c 6
 409.834960938 376.654296875 331.948242188 320.250976562 408.495117188 296.034179688 c 5
 414.334960938 315.359375 423.342773438 336.47265625 435.903320312 359.142578125 c 4
 503.18359375 480.576171875 403.456054688 466.735351562 367.833984375 453.048828125 c 5
 345.926757812 406.260742188 336.84375 340.365234375 349.16796875 252.450195312 c 4
 372.612304688 85.21484375 489.13671875 -59.7578125 595.427734375 89.390625 c 4
 629.065429688 136.591796875 698.93359375 104.1328125 701.15234375 101.584960938 c 4
 704.545898438 97.6865234375 698 67.48046875 675.568359375 44.849609375 c 4
 644.779296875 13.7890625 298.889648438 -91.2958984375 295.16796875 235.650390625 c 4
 291.3984375 566.829101562 538.788085938 573.200195312 581.368164062 574.650390625 c 4
478.287109375 288.625976562 m 4
 466.908203125 288.236328125 454.549804688 284.0078125 440.833984375 275.678710938 c 5
 432.232421875 209.196289062 465.100585938 173.837890625 495.2890625 173.529296875 c 4
 514.735351562 173.330078125 526.190429688 178.501953125 535.134765625 184.07421875 c 4
 554.233398438 195.973632812 555.518554688 217.141601562 543.20703125 238.213867188 c 4
 523.61328125 271.751953125 503.321289062 289.481445312 478.287109375 288.625976562 c 4
EndSplineSet
EndChar
StartChar: wis_ouh
Encoding: 263 -1 61
Width: 1000
Flags: H
LayerCount: 2
Fore
SplineSet
415.618164062 574.650390625 m 4
 458.197265625 573.200195312 705.587890625 566.829101562 701.818359375 235.650390625 c 4
 698.096679688 -91.2958984375 352.206054688 13.7890625 321.41796875 44.849609375 c 4
 298.986328125 67.48046875 292.440429688 97.6865234375 295.833984375 101.584960938 c 4
 298.05078125 104.1328125 367.919921875 136.591796875 401.55859375 89.390625 c 4
 507.849609375 -59.7578125 624.373046875 85.21484375 647.818359375 252.450195312 c 4
 660.142578125 340.365234375 651.059570312 406.260742188 629.15234375 453.048828125 c 5
 593.530273438 466.735351562 493.802734375 480.576171875 561.083007812 359.142578125 c 4
 573.643554688 336.47265625 582.651367188 315.359375 588.491210938 296.034179688 c 5
 665.038085938 320.250976562 587.150390625 376.654296875 588.774414062 376.908203125 c 6
 588.774414062 376.908203125 589.142578125 386.685546875 594.5703125 393.693359375 c 5
 613.3515625 397.005859375 617.624023438 389.212890625 617.624023438 389.212890625 c 5
 637.987304688 367.999023438 631.201171875 329.390625 631.201171875 329.390625 c 5
 627.016601562 298.149414062 611.782226562 283.390625 593.215820312 277.654296875 c 5
 607.786132812 208.26953125 577.797851562 166.162109375 524.801757812 164.236328125 c 4
 478.857421875 162.56640625 409.088867188 184.013671875 429.13671875 258.803710938 c 4
 441.252929688 288.333007812 462.849609375 339.768554688 507.44140625 315.396484375 c 4
 523.712890625 306.501953125 534.10546875 302.69921875 552.8515625 294.110351562 c 5
 550.586914062 304.106445312 547.477539062 314.708007812 543.3125 325.870117188 c 4
 518.526367188 392.28515625 505.708984375 479.432617188 588.280273438 473.711914062 c 4
 597.860351562 473.048828125 608.7890625 471.642578125 621.14453125 468.358398438 c 5
 559.243164062 528.018554688 503.12109375 546.578125 457.798828125 543.944335938 c 4
 431.466796875 542.415039062 387.748046875 528.958984375 358.618164062 523.650390625 c 4
 350.588867188 524.796875 365.208007812 576.365234375 415.618164062 574.650390625 c 4
518.69921875 288.625976562 m 4
 493.665039062 289.481445312 473.373046875 271.751953125 453.779296875 238.213867188 c 4
 441.467773438 217.141601562 442.752929688 195.973632812 461.8515625 184.07421875 c 4
 470.794921875 178.501953125 482.250976562 173.330078125 501.697265625 173.529296875 c 4
 531.884765625 173.837890625 564.751953125 209.196289062 556.15234375 275.678710938 c 5
 542.435546875 284.0078125 530.076171875 288.236328125 518.69921875 288.625976562 c 4
EndSplineSet
EndChar
StartChar: wis_ps
Encoding: 273 -1 71
Width: 1000
Flags: HW
LayerCount: 2
Fore
SplineSet
605.423828125 733.6171875 m 5
 605.423828125 733.6171875 l 5
 609.170898438 733.759765625 613.247070312 731.553710938 617.022460938 724.5078125 c 4
 638.1875 685.0078125 686.501953125 190.081054688 587.013671875 297.65625 c 4
 248.6171875 663.560546875 355.763671875 63.40234375 455.010742188 94.076171875 c 4
 475.77734375 100.494140625 495.763671875 141.026367188 512.723632812 193.971679688 c 4
 517.208007812 213.196289062 505.060546875 225.600585938 508.9375 226.116210938 c 4
 516.892578125 227.17578125 538.6015625 211.950195312 539.109375 193.971679688 c 4
 540.83984375 8.5224609375 633.051757812 95.7861328125 635.748046875 112.393554688 c 4
 638.435546875 128.939453125 665.696289062 118.004882812 654.956054688 58.34765625 c 4
 648.11328125 20.3359375 578.315429688 -5.970703125 546.919921875 4.73046875 c 4
 513.822265625 16.0107421875 515.451171875 70.94140625 511.9296875 60.12890625 c 4
 467.796875 -75.40625 325.313476562 54.9921875 314.864257812 215.909179688 c 4
 297.71875 479.955078125 431.249023438 459.9609375 582.874023438 384.579101562 c 5
 596.583007812 455.8359375 600.731445312 600.426757812 578.749023438 663.448242188 c 5
 578.749023438 663.448242188 496.798828125 563.935546875 412.287109375 536.49609375 c 4
 327.774414062 509.056640625 350.048828125 590.500976562 350.048828125 590.500976562 c 5
 350.048828125 590.500976562 356.256835938 547.298828125 417.827148438 580.153320312 c 4
 479.397460938 613.0078125 575.115234375 701.483398438 591.930664062 724.5078125 c 4
 592.311523438 724.5234375 598.267578125 733.346679688 605.423828125 733.6171875 c 5
EndSplineSet
EndChar
StartChar: wis_th
Encoding: 274 -1 72
Width: 1000
Flags: H
LayerCount: 2
Fore
SplineSet
532.747070312 747.66015625 m 5
 532.747070312 747.66015625 l 5
 205.428710938 709.20703125 345.000976562 164.947265625 510.104492188 475.30859375 c 4
 517.484375 489.177734375 537.244140625 507.939453125 552.5078125 500.821289062 c 4
 569.682617188 492.8125 532.009765625 376.952148438 494.741210938 334.233398438 c 5
 551.764648438 354.342773438 610.98828125 360.916992188 658.544921875 331.028320312 c 4
 712.771484375 296.94921875 732.478515625 166.380859375 627.356445312 35.755859375 c 4
 576.103515625 -27.9306640625 513.821289062 -118.576171875 392.418945312 -125.565429688 c 5
 392.418945312 -125.565429688 400.940429688 -121.646484375 430.05078125 -105.319335938 c 4
 706.096679688 49.5146484375 833.984375 604.212890625 335.28125 158.452148438 c 4
 328.991210938 153.372070312 329.083984375 179.221679688 359.315429688 212.263671875 c 4
 410.69921875 268.427734375 459.55859375 294.28125 489.081054688 393.66796875 c 5
 447.840820312 361.01171875 405.79296875 365.583984375 405.79296875 365.583984375 c 5
 144.600585938 409.587890625 363.693359375 790.193359375 532.747070312 747.66015625 c 5
EndSplineSet
EndChar
StartChar: wis_ts
Encoding: 275 -1 73
Width: 1000
Flags: H
LayerCount: 2
Fore
SplineSet
591.311523438 680.962890625 m 6
 593.314453125 679.4375 595.129882812 677.330078125 596.802734375 674.7421875 c 4
 649.296875 609.392578125 609.188476562 345.240234375 528.288085938 333.62109375 c 5
 702.952148438 353.36328125 645.55859375 -44.283203125 536.723632812 -92.720703125 c 4
 427.5234375 -141.3203125 414.8203125 -4.220703125 418.870117188 0.4296875 c 5
 433.471679688 -8.91796875 442.237304688 -15.671875 442.237304688 -15.671875 c 5
 451.872070312 -47.7861328125 480.418945312 -45.2265625 495.274414062 -40.51171875 c 4
 592.81640625 -9.55078125 681.399414062 379.486328125 517.736328125 307.60546875 c 4
 464.865234375 287.709960938 480.719726562 341.131835938 512.434570312 357.66796875 c 5
 591.921875 374.51171875 588.705078125 492.063476562 575.524414062 554.887695312 c 5
 478.84765625 403.626953125 366.69921875 453.268554688 376.126953125 484.171875 c 5
 475.529296875 419.717773438 578.8359375 584.482421875 576.33984375 633.26953125 c 5
 543.247070312 579.600585938 429.611328125 497.36328125 386.411132812 504.5625 c 4
 343.211914062 511.762695312 353.73046875 551.30859375 353.73046875 551.30859375 c 5
 353.73046875 551.30859375 363.611328125 515.962890625 414.01171875 538.163085938 c 4
 478.61328125 566.618164062 591.311523438 680.962890625 591.311523438 680.962890625 c 6
EndSplineSet
EndChar
StartChar: wis_tv
Encoding: 276 -1 74
Width: 1000
Flags: H
LayerCount: 2
Fore
SplineSet
611.641601562 766.828125 m 5
 618.194335938 761.83984375 648.079101562 726.060546875 638.911132812 630.838867188 c 5
 635.077148438 521.58203125 593.155273438 435.169921875 552.327148438 409.717773438 c 4
 521.844726562 390.715820312 492.889648438 473.2578125 445.611328125 375.063476562 c 4
 400.223632812 280.793945312 407.124023438 21.427734375 561.072265625 71.8408203125 c 4
 591.5 81.8037109375 598.157226562 65.6884765625 608.486328125 36.740234375 c 4
 618.81640625 7.7919921875 610.828125 6.76171875 610.828125 6.76171875 c 5
 172.30859375 -29.134765625 421.791992188 501.830078125 495.763671875 465.931640625 c 4
 613.1484375 408.967773438 594.278320312 637.228515625 594.278320312 637.228515625 c 5
 497.602539062 485.966796875 387.030273438 539.133789062 396.45703125 570.037109375 c 5
 499.159179688 511.283203125 599.165039062 670.34765625 596.668945312 719.134765625 c 5
 563.577148438 665.465820312 449.94140625 583.228515625 406.741210938 590.427734375 c 4
 363.541015625 597.627929688 374.059570312 637.173828125 374.059570312 637.173828125 c 5
 374.059570312 637.173828125 383.94140625 601.828125 434.340820312 624.028320312 c 4
 498.943359375 652.483398438 611.641601562 766.828125 611.641601562 766.828125 c 5
EndSplineSet
EndChar
StartChar: wis_uh
Encoding: 264 -1 62
Width: 1000
Flags: H
LayerCount: 2
Fore
SplineSet
415.618164062 574.650390625 m 4
 458.197265625 573.200195312 705.587890625 566.829101562 701.818359375 235.650390625 c 4
 698.096679688 -91.2958984375 352.206054688 13.7890625 321.41796875 44.849609375 c 4
 298.986328125 67.48046875 292.440429688 97.6865234375 295.833984375 101.584960938 c 4
 298.05078125 104.1328125 367.919921875 136.591796875 401.55859375 89.390625 c 4
 507.849609375 -59.7578125 624.373046875 85.21484375 647.818359375 252.450195312 c 4
 648.89453125 260.122070312 649.806640625 267.626953125 650.5625 274.966796875 c 4
 630.87890625 349.176757812 567.561523438 363.193359375 515.004882812 332.849609375 c 4
 485.51953125 315.826171875 477.1015625 296.32421875 479.8203125 278.259765625 c 4
 484.469726562 247.366210938 520.57421875 218.719726562 541.791992188 217.814453125 c 4
 546.645507812 217.919921875 545.90234375 223.434570312 545.274414062 225.227539062 c 4
 542.03515625 234.46484375 555.630859375 231.762695312 569.43359375 226.103515625 c 4
 583.258789062 220.435546875 579.891601562 221.102539062 577.43359375 218.533203125 c 4
 535.833007812 192.604492188 513.153320312 201.498046875 495.107421875 216.247070312 c 4
 459.376953125 245.44921875 445.791992188 358.065429688 520.083984375 363.743164062 c 4
 597.595703125 369.666992188 636.293945312 343.216796875 653.265625 317.702148438 c 5
 655.578125 471.96484375 568.500976562 526.82421875 489.53515625 539.102539062 c 4
 443.782226562 546.215820312 402.26953125 531.60546875 358.618164062 523.650390625 c 4
 350.588867188 524.796875 365.208007812 576.365234375 415.618164062 574.650390625 c 4
EndSplineSet
EndChar
